<?xml version="1.0" encoding="UTF-8" standalone="no"?>
<!-- Created with Inkscape (http://www.inkscape.org/) -->
<svg
   xmlns:dc="http://purl.org/dc/elements/1.1/"
   xmlns:cc="http://creativecommons.org/ns#"
   xmlns:rdf="http://www.w3.org/1999/02/22-rdf-syntax-ns#"
   xmlns:svg="http://www.w3.org/2000/svg"
   xmlns="http://www.w3.org/2000/svg"
   xmlns:xlink="http://www.w3.org/1999/xlink"
   xmlns:sodipodi="http://sodipodi.sourceforge.net/DTD/sodipodi-0.dtd"
   xmlns:inkscape="http://www.inkscape.org/namespaces/inkscape"
   width="800"
   height="80"
   id="svg2"
   sodipodi:version="0.32"
   inkscape:version="0.46"
   version="1.0"
   inkscape:export-filename="/home/defo/workspace/python/django/gaviota/static/img/top_logo.png"
   inkscape:export-xdpi="90.050003"
   inkscape:export-ydpi="90.050003"
   sodipodi:docname="top_logo.svg"
   inkscape:output_extension="org.inkscape.output.svg.inkscape">
  <sodipodi:namedview
     id="base"
     pagecolor="#ffffff"
     bordercolor="#666666"
     borderopacity="1.0"
     gridtolerance="10"
     guidetolerance="10"
     objecttolerance="10"
     inkscape:pageopacity="0.0"
     inkscape:pageshadow="2"
     inkscape:zoom="0.45627498"
     inkscape:cx="227.34703"
     inkscape:cy="232.64335"
     inkscape:document-units="px"
     inkscape:current-layer="layer1"
     showgrid="false"
     showguides="true"
     inkscape:guide-bbox="true"
     inkscape:snap-intersection-line-segments="true"
     inkscape:snap-center="true"
     inkscape:object-paths="true"
     inkscape:object-nodes="true"
     inkscape:window-width="1434"
     inkscape:window-height="789"
     inkscape:window-x="0"
     inkscape:window-y="30">
    <sodipodi:guide
       orientation="1,0"
       position="0.096858639,-0.77486911"
       id="guide3789" />
    <sodipodi:guide
       orientation="0,1"
       position="29.445026,79.908377"
       id="guide3791" />
    <sodipodi:guide
       orientation="0,1"
       position="24.408377,-0.096858639"
       id="guide3793" />
    <sodipodi:guide
       orientation="1,0"
       position="800.24607,38.743455"
       id="guide3795" />
  </sodipodi:namedview>
  <defs
     id="defs4">
    <linearGradient
       inkscape:collect="always"
       id="linearGradient3797">
      <stop
         style="stop-color:#ffffff;stop-opacity:1;"
         offset="0"
         id="stop3799" />
      <stop
         style="stop-color:#ffffff;stop-opacity:0;"
         offset="1"
         id="stop3801" />
    </linearGradient>
    <linearGradient
       inkscape:collect="always"
       id="linearGradient3134">
      <stop
         style="stop-color:#b0b0b0;stop-opacity:1;"
         offset="0"
         id="stop3136" />
      <stop
         style="stop-color:#b0b0b0;stop-opacity:0;"
         offset="1"
         id="stop3138" />
    </linearGradient>
    <radialGradient
       inkscape:collect="always"
       xlink:href="#linearGradient3134"
       id="radialGradient3419"
       gradientUnits="userSpaceOnUse"
       gradientTransform="matrix(1,0,0,0.952381,0,25.18339)"
       cx="103.83396"
       cy="554.09271"
       fx="103.83396"
       fy="554.09271"
       r="35.05648" />
    <linearGradient
       inkscape:collect="always"
       id="linearGradient3283">
      <stop
         style="stop-color:white;stop-opacity:1;"
         offset="0"
         id="stop3285" />
      <stop
         style="stop-color:white;stop-opacity:0;"
         offset="1"
         id="stop3287" />
    </linearGradient>
    <linearGradient
       inkscape:collect="always"
       xlink:href="#linearGradient3283"
       id="linearGradient3417"
       gradientUnits="userSpaceOnUse"
       x1="18.362919"
       y1="574.75934"
       x2="18.029045"
       y2="601.46906" />
    <radialGradient
       inkscape:collect="always"
       xlink:href="#linearGradient3313"
       id="radialGradient3415"
       gradientUnits="userSpaceOnUse"
       gradientTransform="matrix(2.473497,-2.861207e-2,2.944879e-2,2.537294,-54.8825,-898.9284)"
       cx="25.21307"
       cy="579.40759"
       fx="25.21307"
       fy="579.40759"
       r="45.389448" />
    <linearGradient
       id="linearGradient3313">
      <stop
         id="stop3315"
         offset="0"
         style="stop-color:#003380;stop-opacity:0;" />
      <stop
         style="stop-color:#003380;stop-opacity:0.60833335;"
         offset="0.75555557"
         id="stop2151" />
      <stop
         id="stop3317"
         offset="1"
         style="stop-color:#003380;stop-opacity:0.70833325;" />
    </linearGradient>
    <radialGradient
       inkscape:collect="always"
       xlink:href="#linearGradient3313"
       id="radialGradient2149"
       cx="25.21307"
       cy="579.40759"
       fx="25.21307"
       fy="579.40759"
       r="45.389448"
       gradientTransform="matrix(1.554539,-4.770858e-2,5.216418e-2,1.698813,-44.87423,-412.6246)"
       gradientUnits="userSpaceOnUse" />
    <linearGradient
       inkscape:collect="always"
       xlink:href="#linearGradient3120"
       id="linearGradient3413"
       gradientUnits="userSpaceOnUse"
       x1="62.173267"
       y1="568.38214"
       x2="60.905228"
       y2="619.8645" />
    <linearGradient
       inkscape:collect="always"
       id="linearGradient3120">
      <stop
         style="stop-color:#b0b0b0;stop-opacity:1;"
         offset="0"
         id="stop3122" />
      <stop
         style="stop-color:#b0b0b0;stop-opacity:0;"
         offset="1"
         id="stop3124" />
    </linearGradient>
    <linearGradient
       inkscape:collect="always"
       xlink:href="#linearGradient3120"
       id="linearGradient3128"
       x1="62.173267"
       y1="568.38214"
       x2="60.905228"
       y2="619.8645"
       gradientUnits="userSpaceOnUse" />
    <linearGradient
       inkscape:collect="always"
       id="linearGradient3044">
      <stop
         style="stop-color:black;stop-opacity:1;"
         offset="0"
         id="stop3046" />
      <stop
         style="stop-color:black;stop-opacity:0;"
         offset="1"
         id="stop3048" />
    </linearGradient>
    <radialGradient
       inkscape:collect="always"
       xlink:href="#linearGradient3044"
       id="radialGradient3411"
       gradientUnits="userSpaceOnUse"
       gradientTransform="matrix(1,0,0,0.151316,0,579.4533)"
       cx="53.419399"
       cy="682.76672"
       fx="53.419399"
       fy="682.76672"
       r="50.748432" />
    <inkscape:perspective
       sodipodi:type="inkscape:persp3d"
       inkscape:vp_x="0 : 526.18109 : 1"
       inkscape:vp_y="0 : 1000 : 0"
       inkscape:vp_z="744.09448 : 526.18109 : 1"
       inkscape:persp3d-origin="372.04724 : 350.78739 : 1"
       id="perspective10" />
    <linearGradient
       inkscape:collect="always"
       xlink:href="#linearGradient3797"
       id="linearGradient3803"
       x1="192.86615"
       y1="80.096863"
       x2="192.86615"
       y2="56.036549"
       gradientUnits="userSpaceOnUse"
       gradientTransform="matrix(1,0,0,1.8759916,0,-70.164177)" />
  </defs>
  <metadata
     id="metadata7">
    <rdf:RDF>
      <cc:Work
         rdf:about="">
        <dc:format>image/svg+xml</dc:format>
        <dc:type
           rdf:resource="http://purl.org/dc/dcmitype/StillImage" />
      </cc:Work>
    </rdf:RDF>
  </metadata>
  <g
     inkscape:label="Layer 1"
     inkscape:groupmode="layer"
     id="layer1">
    <image
       y="-367"
       x="-423"
       id="image3012"
       height="1024"
       width="1280"
       sodipodi:absref="/home/defo/Escritorio/Sky,sea,clouds_zastavki_com_4594_10.jpg"
       xlink:href="/home/defo/Escritorio/Sky,sea,clouds_zastavki_com_4594_10.jpg"
       inkscape:export-xdpi="90"
       inkscape:export-ydpi="90"
       style="opacity:1;fill:#000000;fill-opacity:1" />
    <rect
       style="opacity:0.73394493999999999;fill:url(#linearGradient3803);fill-opacity:1;fill-rule:evenodd;stroke:none;stroke-width:1;stroke-linecap:butt;stroke-linejoin:miter;marker:none;marker-start:none;marker-mid:none;marker-end:none;stroke-miterlimit:8.89999961999999911;stroke-dasharray:none;stroke-dashoffset:0;stroke-opacity:1;visibility:visible;display:inline;overflow:visible;enable-background:accumulate"
       id="rect3787"
       width="800.14923"
       height="56.322968"
       x="0.096858636"
       y="23.773891" />
    <g
       id="g3142"
       transform="matrix(0.4105803,0,0,0.4105803,0.9179431,-175.83462)"
       inkscape:export-filename="/home/defo/Documentos/Universidad/Logo/unpsjb_big_big.png"
       inkscape:export-xdpi="2178.75"
       inkscape:export-ydpi="2178.75">
      <path
         transform="translate(37.39358,-80.79684)"
         d="M 104.16783,682.76672 A 50.748432,7.679039 0 1 1 2.6709671,682.76672 A 50.748432,7.679039 0 1 1 104.16783,682.76672 z"
         sodipodi:ry="7.679039"
         sodipodi:rx="50.748432"
         sodipodi:cy="682.76672"
         sodipodi:cx="53.419399"
         id="path2155"
         style="opacity:0.36290325;fill:url(#radialGradient3411);fill-opacity:1;fill-rule:nonzero;stroke:none;stroke-width:0.2;stroke-linecap:round;stroke-linejoin:round;marker:none;marker-start:none;marker-mid:none;marker-end:none;stroke-miterlimit:4;stroke-dasharray:none;stroke-dashoffset:0;stroke-opacity:1;visibility:visible;display:inline;overflow:visible"
         sodipodi:type="arc" />
      <g
         id="g3052"
         style="fill:#ffffff;fill-opacity:1;stroke:#000000;stroke-width:0.52608466;stroke-opacity:1"
         transform="matrix(1.316487,0,0,1.316487,20.64818,-271.1657)">
        <path
           id="path3054"
           d="M 49.824,543.826 L 49.824,543.826 C 74.232,543.826 92.16,564.49 94.104,583.066 C 95.472,596.314 95.688,609.562 93.456,622.81 C 90.288,641.098 73.8,661.978 49.824,661.978 L 49.824,661.978 C 25.848,661.978 7.92,641.674 5.544,622.81 C 3.96,609.562 3.96,596.314 5.544,583.066 C 7.92,564.058 25.488,543.826 49.824,543.826 z"
           style="fill:#ffffff;fill-opacity:1;stroke:#000000;stroke-width:0.52608466;stroke-opacity:1" />
      </g>
      <g
         transform="matrix(1.302314,0,0,-1.302314,21.35318,1307.714)"
         style="opacity:0.26209675;fill:url(#linearGradient3128);fill-opacity:1;stroke:none;stroke-width:0.21600001;stroke-opacity:1"
         id="g3116">
        <path
           style="fill:url(#linearGradient3413);fill-opacity:1;stroke:none;stroke-opacity:1"
           d="M 49.824,543.826 L 49.824,543.826 C 74.232,543.826 92.16,564.49 94.104,583.066 C 95.472,596.314 95.688,609.562 93.456,622.81 C 90.288,641.098 73.8,661.978 49.824,661.978 L 49.824,661.978 C 25.848,661.978 7.92,641.674 5.544,622.81 C 3.96,609.562 3.96,596.314 5.544,583.066 C 7.92,564.058 25.488,543.826 49.824,543.826 z"
           id="path3118" />
      </g>
      <g
         transform="translate(36.0581,-80.79684)"
         style="fill:#5fbcd3"
         id="g2387">
        <path
           style="fill:#5fbcd3"
           id="path2389"
           transform="translate(0,-160)"
           d="M 49.6875,703.8125 C 25.4235,703.8845 7.9072499,724.12652 5.53125,743.0625 C 3.94725,756.3105 3.9472499,769.5645 5.53125,782.8125 C 7.83525,801.6045 25.8555,821.89672 49.6875,821.96875 L 49.8125,821.96875 C 73.7885,821.96875 90.300749,801.1005 93.46875,782.8125 C 95.70075,769.5645 95.461754,756.31052 94.09375,743.0625 C 92.14975,724.4865 74.220499,703.81251 49.8125,703.8125 L 49.6875,703.8125 z M 79.0625,722.53125 C 79.0625,723.17925 79.1345,724.2895 79.0625,724.9375 C 78.8465,726.6655 77.529748,728.38203 76.59375,729.75 C 74.28975,732.342 72.154498,734.99901 69.5625,737.375 C 68.5545,738.383 68.126252,739.5355 67.40625,740.6875 L 64.9375,748.03125 L 64.875,748.1875 C 64.227,748.8355 64.163002,749.68902 63.875,750.625 L 58.09375,760.28125 L 54.71875,765.15625 L 54.65625,765.3125 C 55.52025,768.1205 58.187749,769.77074 59.84375,772.21875 C 60.41975,773.37075 60.562502,774.51651 60.5625,775.8125 C 59.0505,776.6045 56.815,776.39523 55.375,775.53125 C 53.575,773.80325 51.8475,773.22277 49.6875,772.71875 C 49.1115,772.57475 48.5135,772.45653 47.9375,772.3125 C 47.0735,773.1765 46.301501,773.46074 45.4375,774.46875 L 45.0625,774.96875 L 44.78125,775.1875 C 44.56525,775.9075 43.4225,776.74876 43.0625,777.46875 C 40.2545,780.63675 36.645002,782.07523 34.125,785.53125 L 32.25,787.5625 C 31.746,789.6505 30.745751,791.45 29.59375,793.25 L 22.53125,802.8125 L 20.4375,803.625 C 20.3655,800.817 20.09925,797.43302 20.53125,794.625 C 20.81925,791.529 23.114251,785.69275 23.90625,784.46875 C 24.91425,781.94875 26.22175,780.00926 28.09375,778.28125 C 28.95775,777.48925 30.39825,776.26075 31.40625,775.46875 C 35.00625,772.66075 37.282752,770.85525 38.21875,766.03125 C 36.92275,764.73525 36.446999,763.09073 36.375,761.21875 C 36.087,759.99475 34.85175,759.70227 33.84375,758.40625 C 32.97975,757.39825 31.902001,756.02722 30.75,756.53125 L 29.4375,756.875 C 30.3015,754.787 31.018,753.58697 33.25,753.875 L 33.78125,753.9375 L 34.125,754.09375 C 34.629,754.23775 35.058499,754.52175 35.5625,754.59375 C 37.6505,754.52175 39.516499,754.51925 40.8125,756.03125 L 41.53125,756.15625 C 43.18725,756.01225 44.791,757.03949 46.375,757.6875 C 47.095,755.9595 48.3195,755.29202 49.6875,754.5 C 50.1915,754.212 50.621001,753.9225 51.125,753.5625 L 52.40625,752 C 52.98225,749.48 55.07625,744.86649 56.15625,742.5625 C 56.51625,741.0505 56.964749,740.19277 57.46875,738.96875 C 58.40475,737.31275 60.557249,734.79876 61.78125,733.71875 C 63.50925,732.13475 65.361748,730.81898 67.59375,728.875 C 70.68975,726.499 73.379497,725.41825 76.1875,723.90625 C 76.9795,723.54625 78.2705,723.03523 79.0625,722.53125 z" />
      </g>
      <g
         transform="translate(36.39197,-80.35503)"
         style="fill:url(#radialGradient2149);fill-opacity:1;stroke:none;stroke-width:0.21600001"
         id="g3037">
        <path
           style="fill:url(#radialGradient3415);fill-opacity:1;stroke:none"
           d="M 49.824,543.826 L 49.824,543.826 C 74.232,543.826 92.16,564.49 94.104,583.066 C 95.472,596.314 95.688,609.562 93.456,622.81 C 90.288,641.098 73.8,661.978 49.824,661.978 L 49.824,661.978 C 25.848,661.978 7.92,641.674 5.544,622.81 C 3.96,609.562 3.96,596.314 5.544,583.066 C 7.92,564.058 25.488,543.826 49.824,543.826 z"
           id="path3039" />
      </g>
      <g
         transform="translate(36.0581,-80.79684)"
         id="g4"
         style="fill:none;stroke:#000000;stroke-width:0.52608466">
        <path
           id="path6"
           d="M 49.824,543.826 L 49.824,543.826 C 74.232,543.826 92.16,564.49 94.104,583.066 C 95.472,596.314 95.688,609.562 93.456,622.81 C 90.288,641.098 73.8,661.978 49.824,661.978 L 49.824,661.978 C 25.848,661.978 7.92,641.674 5.544,622.81 C 3.96,609.562 3.96,596.314 5.544,583.066 C 7.92,564.058 25.488,543.826 49.824,543.826 z"
           style="stroke-width:0.52608466" />
      </g>
      <g
         transform="translate(36.0581,-80.79684)"
         id="g8"
         style="fill:#ffffff">
        <path
           id="path10"
           d="M 67.608,568.882 C 70.704,566.506 73.368,565.426 76.176,563.914 C 76.968,563.554 78.264,563.05 79.056,562.546 C 79.056,563.194 79.128,564.274 79.056,564.922 C 78.84,566.65 77.544,568.378 76.608,569.746 C 74.304,572.338 72.144,575.002 69.552,577.378 C 68.544,578.386 68.112,579.538 67.392,580.69 L 64.944,588.034 L 64.872,588.178 C 64.224,588.826 64.152,589.69 63.864,590.626 L 58.104,600.274 L 54.72,605.17 L 54.648,605.314 C 55.512,608.122 58.176,609.778 59.832,612.226 C 60.408,613.378 60.552,614.53 60.552,615.826 C 59.04,616.618 56.808,616.402 55.368,615.538 C 53.136,613.378 50.904,613.018 47.952,612.298 C 47.088,613.162 46.296,613.45 45.432,614.458 L 45.072,614.962 L 44.784,615.178 C 44.568,615.898 43.416,616.762 43.056,617.482 C 40.248,620.65 36.648,622.09 34.128,625.546 L 32.256,627.562 C 31.752,629.65 30.744,631.45 29.592,633.25 L 22.536,642.826 L 20.448,643.618 C 20.376,640.81 20.088,637.426 20.52,634.618 C 20.808,631.522 23.112,625.69 23.904,624.466 C 24.912,621.946 26.208,620.002 28.08,618.274 C 28.944,617.482 30.384,616.258 31.392,615.466 C 34.992,612.658 37.296,610.858 38.232,606.034 C 36.936,604.738 36.432,603.082 36.36,601.21 C 36.072,599.986 34.848,599.698 33.84,598.402 C 32.976,597.394 31.896,596.026 30.744,596.53 L 29.448,596.89 C 30.312,594.802 31.032,593.578 33.264,593.866 L 33.768,593.938 L 34.128,594.082 C 34.632,594.226 35.064,594.514 35.568,594.586 C 37.656,594.514 39.528,594.514 40.824,596.026 L 41.544,596.17 C 43.2,596.026 44.784,597.034 46.368,597.682 C 47.304,595.306 49.248,595.018 51.12,593.578 L 52.416,591.994 C 52.992,589.474 55.08,584.866 56.16,582.562 C 56.52,581.05 56.952,580.186 57.456,578.962 C 58.392,577.306 60.552,574.786 61.776,573.706 C 63.504,572.122 65.376,570.826 67.608,568.882 z" />
      </g>
      <g
         transform="translate(36.0581,-80.79684)"
         id="g12"
         style="fill:#000000">
        <path
           id="path14"
           d="M 21.312,642.178 C 20.88,636.418 21.096,630.73 24.48,624.898 C 25.344,624.106 22.176,630.73 22.752,632.962 L 24.192,629.218 L 23.4,632.746 L 23.688,632.602 L 24.768,628.714 C 24.768,629.866 23.616,631.378 24.696,632.458 L 24.984,632.314 L 25.704,628.57 L 25.92,631.882 C 26.64,629.578 25.848,627.634 25.992,625.258 L 25.92,624.754 C 25.704,624.322 26.208,623.89 26.136,623.458 L 26.496,627.058 L 26.712,626.698 C 26.784,625.69 27.504,624.898 27.216,623.818 C 27.648,624.466 27.216,625.114 27.72,625.834 L 28.224,625.834 C 28.656,624.826 28.44,623.818 28.584,622.738 C 29.16,623.026 28.8,624.106 29.304,624.754 C 30.168,624.394 29.376,623.026 29.88,622.522 C 30.096,623.026 30.168,623.53 30.456,624.106 L 30.6,624.034 C 30.96,623.314 30.6,622.378 30.816,621.586 C 30.888,621.946 31.032,622.378 31.32,622.882 L 31.608,622.738 C 32.04,622.234 31.536,621.298 31.968,620.866 C 32.184,620.938 32.184,621.586 32.616,621.73 L 32.688,621.154 L 32.544,620.434 C 32.976,620.362 32.832,621.082 33.408,620.866 C 33.408,620.578 32.976,620.074 33.264,619.786 C 33.408,620.002 33.48,620.29 33.84,620.434 C 34.272,620.362 33.768,619.786 33.624,619.426 L 33.84,619.354 C 34.056,619.642 34.128,619.858 34.56,620.074 C 34.992,619.858 34.488,619.282 34.272,618.778 C 34.56,618.634 34.632,618.994 34.992,619.066 C 35.208,618.922 34.776,618.706 34.992,618.49 C 35.352,618.274 35.28,618.922 35.712,618.562 C 35.856,618.058 35.28,617.986 35.352,617.554 C 35.856,617.554 35.856,617.914 36.288,618.058 L 36.504,617.842 C 36.432,617.482 36.144,617.266 36,616.906 L 35.64,616.906 L 33.912,618.49 L 33.84,618.274 L 37.008,615.25 L 37.44,615.034 L 37.656,614.674 C 38.304,614.53 38.952,613.666 38.952,612.802 C 39.168,612.802 39.312,612.874 39.6,613.09 C 39.744,612.73 39.168,612.658 39.384,612.226 L 39.744,612.442 C 39.888,612.082 40.104,611.794 40.104,611.362 C 40.32,611.29 40.464,611.434 40.752,611.506 L 40.824,611.362 C 40.752,611.074 40.608,611.002 40.392,610.642 C 40.608,610.642 40.824,610.714 41.112,610.93 C 41.256,610.642 40.896,610.57 40.824,610.21 C 41.04,610.066 41.184,610.282 41.472,610.354 C 41.76,609.994 41.184,609.922 41.112,609.562 C 41.544,609.49 41.616,609.994 42.12,609.922 C 42.192,609.562 41.544,609.562 41.832,609.202 C 41.904,609.202 42.12,609.49 42.408,609.274 C 42.408,609.202 41.832,608.914 42.12,608.626 C 42.408,608.842 42.552,609.13 42.696,609.49 C 42.552,609.562 42.552,609.922 42.408,610.21 L 41.904,610.21 L 41.832,610.354 L 42.048,610.786 C 42.264,610.93 42.552,610.93 42.912,611.146 L 42.84,610.642 C 42.984,610.066 43.344,610.93 43.704,610.642 L 43.416,610.066 C 43.632,609.85 43.992,610.282 44.28,610.066 C 44.856,610.714 46.152,611.722 47.16,611.506 L 47.016,610.858 L 52.848,612.658 C 52.488,611.866 51.336,611.65 50.976,610.714 L 56.952,614.962 C 56.952,614.674 56.592,614.89 56.592,614.53 C 56.952,614.386 57.168,614.89 57.6,615.034 L 57.672,614.89 C 57.672,614.602 57.312,614.602 57.168,614.242 L 57.312,614.17 C 57.528,614.314 57.672,614.53 58.032,614.674 C 56.88,612.874 55.368,611.794 53.64,610.354 C 55.728,610.786 56.808,612.874 58.752,613.882 L 58.896,613.666 C 58.896,613.45 58.536,613.45 58.32,613.09 C 58.536,612.874 58.752,613.45 59.04,613.162 C 58.968,612.874 58.608,612.802 58.392,612.514 C 58.608,612.37 58.752,612.514 59.04,612.658 C 57.312,611.002 55.224,608.77 53.424,606.178 L 52.344,604.378 L 52.488,604.162 C 52.776,604.162 52.92,604.378 53.064,604.738 C 53.64,604.666 54,603.874 53.928,603.298 C 53.28,602.218 51.408,602.074 50.328,600.994 C 50.76,600.778 51.408,601.93 52.272,601.786 C 51.984,600.85 51.048,600.778 50.472,599.986 L 50.904,599.986 C 50.616,599.986 50.76,599.41 51.048,599.554 L 50.904,599.05 C 50.328,598.906 50.04,598.834 50.256,599.338 C 49.824,600.058 49.248,599.194 48.744,598.978 C 48.816,598.618 49.464,599.194 49.896,599.41 L 49.968,599.194 C 49.824,598.978 49.608,598.69 49.248,598.546 C 49.752,598.402 50.112,598.906 50.616,598.762 C 50.616,598.33 50.112,598.258 49.824,597.898 C 49.968,597.466 50.688,598.33 50.976,597.826 C 50.904,597.394 50.328,597.466 50.112,597.034 C 49.392,597.61 48.816,598.978 47.592,598.906 C 47.448,598.906 47.232,598.834 46.872,598.402 C 47.376,596.026 49.824,595.162 51.768,593.938 L 51.84,594.154 C 50.4,595.522 48.744,596.386 47.16,598.258 C 47.448,598.69 47.808,598.546 48.384,598.33 C 48.816,597.97 49.176,597.178 49.824,596.746 C 50.184,596.818 50.616,597.394 51.048,597.178 C 51.048,596.818 50.76,596.818 50.616,596.458 C 50.976,596.314 51.336,596.89 51.768,596.746 C 51.624,596.458 51.336,596.386 51.048,596.026 C 51.336,596.026 51.768,596.386 52.128,596.386 C 52.272,595.882 51.624,596.026 51.48,595.45 C 51.768,595.162 51.984,595.738 52.344,595.594 C 52.344,595.162 51.768,595.306 51.696,594.946 C 51.984,594.802 52.416,595.162 52.776,595.018 C 52.776,594.946 52.488,594.73 52.704,594.514 C 52.92,594.586 53.064,594.73 53.208,595.09 C 53.208,595.594 52.56,595.09 52.776,595.738 L 52.272,595.81 C 52.344,596.026 52.416,596.314 52.56,596.53 C 52.416,596.818 52.128,596.386 51.84,596.53 C 52.056,596.962 52.704,596.89 53.064,597.178 C 52.776,596.746 53.496,596.746 53.208,596.098 C 53.352,596.098 53.352,596.386 53.568,596.53 C 53.496,596.746 53.208,596.962 53.496,597.25 C 53.784,597.394 54,597.826 54.504,597.754 L 54.576,597.466 C 54.648,597.466 55.08,597.826 54.864,598.042 L 54.36,598.042 C 54.648,598.33 54.288,598.762 53.928,598.546 C 54,598.69 54.072,598.978 54.288,599.266 C 54,599.626 53.496,598.762 53.208,599.266 C 53.496,599.266 53.352,599.626 53.64,599.698 C 53.64,600.058 53.28,599.698 53.064,599.698 L 52.848,599.842 L 52.848,600.202 L 52.272,600.202 C 52.272,600.418 52.56,600.562 52.344,600.85 L 51.84,600.85 L 54.216,603.226 L 55.152,601.786 L 54.864,601.498 C 54.792,601.282 54.648,600.994 54.36,600.778 L 54.576,600.634 C 54.864,600.85 54.936,601.282 55.368,601.498 L 55.728,601.282 C 55.728,600.634 54.936,600.634 54.72,600.058 C 55.152,600.13 55.368,600.562 55.872,600.85 C 56.16,600.778 56.376,600.346 56.376,599.986 C 56.16,599.698 55.656,599.554 55.44,599.05 C 55.872,599.266 56.304,599.914 56.592,599.77 C 57.024,598.906 55.8,599.122 55.584,598.186 C 56.016,598.258 56.376,599.05 57.096,598.978 C 57.528,598.474 56.376,598.33 55.872,597.61 C 56.376,597.61 56.952,597.97 57.312,598.33 L 59.112,596.026 L 58.896,595.882 L 60.12,593.65 C 59.544,593.362 58.248,593.074 58.392,592.786 L 60.336,593.434 C 60.768,593.146 60.624,592.57 60.696,592.066 C 60.192,591.778 59.76,591.706 59.112,591.346 C 58.68,590.914 60.192,591.706 60.84,591.778 C 61.488,591.706 61.632,590.914 62.208,590.41 L 62.208,589.906 L 63.576,587.17 C 63.072,586.954 60.624,586.594 61.344,586.522 L 63.576,586.954 L 63.72,586.666 C 63.144,586.234 60.048,585.946 61.488,585.874 C 62.136,586.018 62.784,586.234 63.504,586.378 C 63.72,586.306 63.792,586.234 64.008,585.946 L 63.864,585.514 C 63.072,585.442 60.12,585.442 61.488,585.226 L 64.152,585.226 C 64.368,585.226 64.512,584.866 64.728,584.506 L 64.584,584.362 L 61.488,584.65 C 60.336,584.506 63.504,584.434 64.584,584.002 C 65.232,583.498 65.16,582.634 65.448,581.914 C 65.088,581.914 63.432,583.066 64.08,582.346 C 64.44,582.058 65.088,581.914 65.52,581.554 L 66.24,579.682 L 65.88,579.466 C 65.664,579.322 66.24,578.962 65.808,578.818 C 63.792,581.05 61.056,582.85 61.92,581.986 L 65.808,578.53 C 65.952,578.386 66.24,578.314 66.312,578.17 L 66.024,577.81 C 66.024,577.522 66.384,577.666 66.384,577.306 L 66.24,576.874 L 67.464,575.722 C 67.392,575.434 67.032,575.65 66.744,575.722 L 66.672,575.506 C 66.744,575.434 67.032,575.362 67.32,575.146 L 67.104,574.786 L 67.032,574.642 C 67.032,574.426 67.104,574.066 67.392,573.994 C 67.464,573.634 66.816,574.57 66.6,574.066 C 65.088,575.29 61.632,578.026 62.28,576.946 L 66.888,573.49 L 67.464,573.13 L 67.032,572.914 C 67.608,572.41 68.04,571.402 68.76,570.97 L 68.544,570.754 C 68.544,570.322 69.12,570.25 69.552,569.962 L 69.552,569.386 C 69.336,569.314 68.976,569.53 68.832,569.242 C 71.352,567.082 75.024,565.57 78.336,563.554 C 78.624,565.714 77.04,567.658 75.888,569.386 L 70.344,575.722 C 68.76,577.018 67.752,578.53 66.6,580.474 L 64.296,587.674 C 64.152,588.034 63.936,587.89 63.72,588.394 L 63.144,590.338 L 57.384,599.986 L 54.072,604.81 L 53.784,605.098 C 55.008,609.418 60.12,610.786 59.76,615.106 C 58.752,615.754 57.312,615.826 56.088,615.106 C 53.928,612.946 50.976,612.298 47.808,611.506 C 46.872,612.586 45.288,613.162 44.424,614.602 L 44.064,614.746 C 43.992,615.538 43.056,616.042 42.696,616.762 C 39.96,620.074 35.856,621.73 33.48,625.186 L 31.536,627.274 C 31.032,629.29 30.096,631.234 28.872,632.962 L 21.96,642.034 L 21.312,642.178 z" />
      </g>
      <g
         transform="translate(36.0581,-80.79684)"
         id="g16"
         style="fill:#000000">
        <path
           id="path18"
           d="M 26.64,631.306 C 26.28,629.362 26.784,627.418 27.288,625.474 C 27.36,625.69 27.504,626.194 27.864,626.266 L 28.224,626.194 C 28.656,625.474 28.728,624.538 28.728,623.746 C 28.872,624.106 28.728,624.826 29.304,625.186 C 29.736,625.042 29.808,624.25 30.024,623.746 C 30.024,623.89 30.096,624.178 30.24,624.466 L 30.528,624.538 C 30.672,624.25 31.032,623.674 30.96,623.242 L 31.68,623.314 C 32.04,622.666 31.968,622.162 32.04,621.442 C 32.256,621.442 32.184,622.018 32.616,622.162 L 32.832,621.946 C 33.12,621.658 32.832,621.298 32.832,620.938 L 33.264,621.226 C 33.48,621.154 33.624,620.794 33.552,620.506 L 33.912,620.794 C 34.488,620.866 33.84,620.002 34.56,620.434 C 34.992,620.362 34.92,620.002 34.92,619.498 L 35.208,619.498 C 35.424,619.426 35.28,619.138 35.352,618.922 L 35.856,618.922 C 35.928,618.706 35.856,618.49 35.928,618.202 L 36.504,618.346 C 36.72,618.274 36.792,617.914 36.648,617.554 C 36.792,617.554 37.08,617.914 37.368,617.626 L 37.368,617.122 L 38.088,617.122 L 38.232,616.834 C 38.304,616.474 37.944,616.258 37.8,615.826 L 37.368,615.826 C 37.44,616.114 37.656,616.402 37.8,616.762 C 37.368,616.834 37.44,616.258 37.008,616.186 L 36.72,616.258 C 36.648,616.618 36.864,616.834 37.08,617.194 C 36.72,617.194 36.504,616.906 36.144,616.618 L 36.36,616.186 C 36.648,616.042 37.152,616.042 37.224,615.466 C 37.8,615.466 37.944,616.114 38.592,616.258 L 39.168,616.114 L 39.168,615.538 C 39.168,615.466 39.384,615.394 39.672,615.25 L 39.672,614.602 L 40.104,614.746 C 40.392,614.674 40.608,614.386 40.392,614.026 L 42.84,615.538 C 42.84,615.826 42.624,616.258 42.408,616.474 C 41.76,616.258 41.544,615.106 40.752,615.106 C 41.112,615.538 42.264,616.474 41.76,617.266 C 41.256,616.618 41.04,615.826 40.104,615.394 L 39.96,615.466 C 40.32,616.042 41.616,616.834 41.112,617.914 C 41.04,617.914 40.824,617.986 40.608,618.202 C 40.032,617.842 39.744,617.05 39.168,616.618 C 39.168,617.482 40.032,617.842 40.392,618.562 C 39.96,618.634 39.744,618.994 39.312,619.138 L 37.872,617.626 L 38.88,619.426 L 38.52,619.714 L 37.152,618.346 L 37.944,620.002 L 37.728,620.074 L 36.504,618.562 C 36.432,619.066 37.152,619.498 37.44,620.146 C 37.368,620.362 37.224,620.578 36.792,620.722 C 36.504,620.362 36.504,619.714 36,619.498 C 36,620.146 36.72,620.506 36.648,621.154 C 36.432,621.154 36.288,621.442 36,621.226 C 35.856,620.938 35.712,620.434 35.352,620.362 C 35.352,620.794 35.712,621.154 35.928,621.658 L 35.64,621.946 C 35.28,621.73 35.352,621.154 34.992,620.722 L 34.776,620.794 C 34.92,621.442 35.568,622.162 34.992,622.882 L 34.848,622.954 C 34.632,622.234 34.776,621.442 34.272,620.938 L 34.416,623.53 C 34.056,623.818 33.84,624.178 33.408,624.538 L 33.048,622.522 C 32.76,623.242 33.12,624.034 33.048,624.826 C 32.616,624.394 33.048,623.53 32.544,622.882 C 32.184,623.53 32.688,624.754 32.544,625.69 C 32.184,625.906 32.04,626.338 31.536,626.554 C 31.248,625.978 31.392,625.402 31.032,624.754 L 30.888,624.61 C 30.6,625.474 31.392,626.194 30.96,627.058 C 30.528,627.058 30.816,627.346 30.6,627.706 C 29.808,626.914 30.456,625.402 29.88,624.466 L 29.808,628.786 C 29.088,628.066 29.52,626.626 29.16,625.834 L 28.872,629.578 C 28.8,629.506 28.656,629.146 28.44,628.786 C 27.936,629.074 28.44,630.226 27.72,630.658 C 27.288,630.298 27.504,629.578 27.504,629.074 C 27,629.29 27.216,630.298 26.856,631.018 L 26.64,631.306 z" />
      </g>
      <g
         transform="translate(36.0581,-80.79684)"
         id="g20"
         style="fill:#000000">
        <path
           id="path22"
           d="M 25.056,628.066 L 25.848,626.41 C 25.992,626.986 25.344,628.498 25.128,628.066 L 25.056,628.066 z" />
      </g>
      <g
         transform="translate(36.0581,-80.79684)"
         id="g24"
         style="fill:#000000">
        <path
           id="path26"
           d="M 27.36,627.994 C 27.288,627.706 27.432,626.842 27.648,627.058 C 27.576,627.346 28.008,627.562 27.36,627.994 z" />
      </g>
      <g
         transform="translate(36.0581,-80.79684)"
         id="g28"
         style="fill:#000000">
        <path
           id="path30"
           d="M 24.768,627.346 C 24.624,627.058 25.128,625.114 25.2,625.978 C 25.128,626.266 24.984,626.698 24.984,627.058 L 24.768,627.346 z" />
      </g>
      <g
         transform="translate(36.0581,-80.79684)"
         id="g32"
         style="fill:#000000">
        <path
           id="path34"
           d="M 31.968,625.978 C 31.752,626.05 31.176,623.458 31.68,623.746 L 31.968,625.978 z" />
      </g>
      <g
         transform="translate(36.0581,-80.79684)"
         id="g36"
         style="fill:#000000">
        <path
           id="path38"
           d="M 24.624,624.322 C 27.144,616.546 38.016,615.106 39.168,605.818 C 37.8,604.738 37.296,602.578 36.936,600.994 C 36.576,599.338 34.704,599.05 34.272,597.61 C 34.56,597.394 36,598.906 36.792,599.554 C 36.936,599.554 37.08,600.418 37.368,600.49 L 37.728,599.554 C 37.944,599.554 38.232,599.842 38.088,600.13 L 37.368,600.922 C 37.512,605.242 41.184,606.826 44.496,609.418 L 46.512,610.714 C 47.232,612.01 41.472,607.906 39.528,606.178 C 38.592,615.034 27.216,618.346 24.912,624.61 L 24.624,624.322 z" />
      </g>
      <g
         transform="translate(36.0581,-80.79684)"
         id="g40"
         style="fill:#000000">
        <path
           id="path42"
           d="M 33.624,622.666 C 33.48,622.378 33.624,622.162 33.552,621.73 C 33.624,622.018 34.056,622.522 33.624,622.666 z" />
      </g>
      <g
         transform="translate(36.0581,-80.79684)"
         id="g44"
         style="fill:#000000">
        <path
           id="path46"
           d="M 40.752,617.698 C 40.392,617.41 40.104,617.05 39.6,616.546 C 40.104,616.762 40.392,617.122 40.752,617.698 z" />
      </g>
      <g
         transform="translate(36.0581,-80.79684)"
         id="g48"
         style="fill:#000000">
        <path
           id="path50"
           d="M 33.912,616.258 C 34.128,616.186 35.352,614.962 36.072,614.242 C 36.216,613.594 32.976,616.834 33.912,616.258 z" />
      </g>
      <g
         transform="translate(36.0581,-80.79684)"
         id="g52"
         style="fill:#000000">
        <path
           id="path54"
           d="M 38.592,615.898 C 38.232,615.826 38.16,615.466 37.728,615.322 L 37.728,615.034 L 38.088,614.89 C 38.448,615.034 38.52,615.25 38.808,615.682 L 38.592,615.898 z" />
      </g>
      <g
         transform="translate(36.0581,-80.79684)"
         id="g56"
         style="fill:#000000">
        <path
           id="path58"
           d="M 43.2,615.466 C 42.624,614.962 42.12,614.314 41.112,613.954 L 41.112,613.306 C 41.256,613.306 41.472,613.666 41.76,613.45 L 41.76,612.874 L 43.776,614.386 L 43.488,614.746 L 41.904,613.81 L 41.472,613.738 L 43.416,615.25 L 43.2,615.466 z" />
      </g>
      <g
         transform="translate(36.0581,-80.79684)"
         id="g60"
         style="fill:#000000">
        <path
           id="path62"
           d="M 39.312,615.034 C 39.168,614.962 38.88,614.89 38.592,614.674 L 38.592,614.242 C 38.952,614.026 39.024,613.738 39.384,613.306 C 39.672,613.522 39.888,613.738 40.104,614.17 L 40.032,614.314 C 39.744,614.314 39.528,613.882 39.168,614.026 C 38.952,614.314 39.312,614.602 39.312,614.962 L 39.312,615.034 z" />
      </g>
      <g
         transform="translate(36.0581,-80.79684)"
         id="g64"
         style="fill:#000000">
        <path
           id="path66"
           d="M 44.28,614.242 L 42.264,612.874 C 42.264,612.658 42.264,612.226 42.048,611.866 L 44.352,613.45 C 44.424,613.594 44.424,613.882 44.352,614.17 L 44.28,614.242 z" />
      </g>
      <g
         transform="translate(36.0581,-80.79684)"
         id="g68"
         style="fill:#000000">
        <path
           id="path70"
           d="M 36.72,614.17 C 36.504,613.522 37.368,613.45 37.44,612.802 L 37.872,612.874 L 38.088,612.73 C 37.8,612.442 38.16,612.01 38.52,612.226 C 38.52,611.794 38.664,611.794 38.952,611.434 L 38.88,610.786 L 39.384,611.002 C 39.528,610.57 39.024,610.57 39.6,610.066 C 39.6,609.994 39.528,609.85 39.312,609.562 C 39.384,609.49 39.744,609.706 39.888,609.418 L 39.672,609.202 C 39.672,608.914 39.96,609.13 40.248,609.058 C 40.248,608.914 39.6,608.194 40.32,608.482 C 40.248,608.194 40.32,607.906 40.248,607.618 C 40.392,607.834 40.608,607.834 40.752,608.194 C 40.896,608.626 40.392,608.842 40.608,609.418 C 39.888,609.202 40.608,609.634 40.248,609.922 L 39.888,609.922 C 39.96,610.354 39.672,610.642 39.888,611.146 C 39.888,611.65 39.528,611.002 39.24,611.362 C 39.24,612.73 37.656,612.802 36.792,614.17 L 36.72,614.17 z" />
      </g>
      <g
         transform="translate(36.0581,-80.79684)"
         id="g72"
         style="fill:#000000">
        <path
           id="path74"
           d="M 40.464,613.666 L 40.104,613.594 C 40.032,613.594 39.96,613.306 39.744,613.09 L 39.888,612.874 C 40.248,612.946 40.464,613.162 40.752,613.594 L 40.464,613.666 z" />
      </g>
      <g
         transform="translate(36.0581,-80.79684)"
         id="g76"
         style="fill:#000000">
        <path
           id="path78"
           d="M 44.64,613.306 L 42.624,612.01 L 42.624,611.362 L 43.056,611.506 C 43.344,611.074 43.992,611.29 44.136,610.57 L 46.296,611.866 L 46.296,612.154 C 45.792,612.37 45.432,613.162 44.712,613.234 L 44.64,613.306 z" />
      </g>
      <g
         transform="translate(36.0581,-80.79684)"
         id="g80"
         style="fill:#000000">
        <path
           id="path82"
           d="M 41.256,613.09 C 40.896,612.946 40.608,612.73 40.248,612.442 L 40.248,612.154 L 40.68,611.794 C 41.112,612.082 41.184,611.434 41.04,611.146 L 41.544,611.146 L 41.472,610.714 C 41.76,610.714 42.048,611.29 42.264,611.506 C 42.048,611.722 41.472,611.002 41.256,611.506 C 41.472,611.794 41.616,612.01 41.904,612.37 C 41.616,612.658 41.4,612.01 41.04,612.226 C 40.896,612.658 41.472,612.658 41.256,613.09 z" />
      </g>
      <g
         transform="translate(36.0581,-80.79684)"
         id="g84"
         style="fill:#000000">
        <path
           id="path86"
           d="M 45.576,612.154 C 46.008,612.01 43.992,610.93 44.136,611.362 L 45.576,612.154 z" />
      </g>
      <g
         transform="translate(36.0581,-80.79684)"
         id="g88"
         style="fill:#000000">
        <path
           id="path90"
           d="M 48.888,610.642 C 47.52,610.426 49.896,610.066 50.184,610.426 C 50.4,610.642 49.464,610.57 48.96,610.642 L 48.888,610.642 z" />
      </g>
      <g
         transform="translate(36.0581,-80.79684)"
         id="g92"
         style="fill:#000000">
        <path
           id="path94"
           d="M 47.664,610.066 C 46.872,610.498 48.24,609.13 48.6,609.562 L 48.744,609.706 C 48.528,609.994 48.096,609.85 47.736,610.066 L 47.664,610.066 z" />
      </g>
      <g
         transform="translate(36.0581,-80.79684)"
         id="g96"
         style="fill:#000000">
        <path
           id="path98"
           d="M 46.656,609.778 C 46.8,609.634 47.016,609.274 47.592,609.274 C 48.096,609.634 47.304,609.562 47.088,609.706 L 46.656,609.778 z" />
      </g>
      <g
         transform="translate(36.0581,-80.79684)"
         id="g100"
         style="fill:#000000">
        <path
           id="path102"
           d="M 51.84,603.658 L 47.448,599.626 C 46.8,598.114 52.56,603.154 51.984,603.586 L 51.84,603.658 z" />
      </g>
      <g
         transform="translate(36.0581,-80.79684)"
         id="g104"
         style="fill:#000000">
        <path
           id="path106"
           d="M 54.576,601.858 C 54.144,601.93 54.144,601.282 53.856,600.994 L 53.856,600.49 C 53.928,600.778 54.936,602.002 54.576,601.858 z" />
      </g>
      <g
         transform="translate(36.0581,-80.79684)"
         id="g108"
         style="fill:#000000">
        <path
           id="path110"
           d="M 52.056,600.634 C 51.696,600.634 51.264,600.49 51.048,600.058 L 51.264,599.842 C 51.624,600.058 51.768,600.13 52.056,600.562 L 52.056,600.634 z" />
      </g>
      <g
         transform="translate(36.0581,-80.79684)"
         id="g112"
         style="fill:#000000">
        <path
           id="path114"
           d="M 52.488,600.058 C 52.272,599.986 51.768,599.842 51.408,599.626 L 51.768,599.338 C 52.272,599.338 52.272,599.698 52.56,599.986 L 52.488,600.058 z" />
      </g>
      <g
         transform="translate(36.0581,-80.79684)"
         id="g116"
         style="fill:#000000">
        <path
           id="path118"
           d="M 55.368,599.77 C 55.08,599.698 55.008,599.554 54.648,599.338 L 54.936,599.266 C 55.08,599.266 55.08,599.698 55.368,599.77 z" />
      </g>
      <g
         transform="translate(36.0581,-80.79684)"
         id="g120"
         style="fill:#000000">
        <path
           id="path122"
           d="M 53.208,599.626 L 51.624,598.762 C 52.344,598.618 52.776,599.194 53.28,599.626 L 53.208,599.626 z" />
      </g>
      <g
         transform="translate(36.0581,-80.79684)"
         id="g124"
         style="fill:#000000">
        <path
           id="path126"
           d="M 53.64,598.978 C 53.208,598.762 52.776,598.546 52.272,598.402 C 52.488,598.546 52.704,598.33 52.704,598.042 C 53.064,598.258 53.28,598.546 53.64,598.906 L 53.64,598.978 z" />
      </g>
      <g
         transform="translate(36.0581,-80.79684)"
         id="g128"
         style="fill:#000000">
        <path
           id="path130"
           d="M 46.512,598.834 C 47.736,598.114 39.888,595.882 41.256,597.106 C 43.056,597.394 44.856,597.754 46.512,598.834 z" />
      </g>
      <g
         transform="translate(36.0581,-80.79684)"
         id="g132"
         style="fill:#000000">
        <path
           id="path134"
           d="M 53.928,598.258 C 53.496,598.186 52.92,597.97 52.776,597.394 C 53.28,597.394 53.64,597.898 54,598.258 L 53.928,598.258 z" />
      </g>
      <g
         transform="translate(36.0581,-80.79684)"
         id="g136"
         style="fill:#000000">
        <path
           id="path138"
           d="M 34.128,597.466 C 32.688,595.738 31.248,595.306 30.168,596.386 C 30.384,595.306 32.04,594.082 33.264,594.226 C 34.632,594.442 34.632,594.874 35.28,594.874 C 37.224,594.946 39.384,594.658 40.752,596.746 C 40.32,596.746 40.32,596.386 39.888,596.17 L 39.6,596.53 C 38.88,596.53 39.168,596.386 39.672,596.098 C 38.448,595.522 36.576,595.09 35.28,595.234 L 35.28,596.098 L 35.064,596.674 C 34.776,596.818 34.776,597.178 34.272,597.466 L 34.128,597.466 z" />
      </g>
      <g
         transform="translate(36.0581,-80.79684)"
         id="g140"
         style="fill:#000000">
        <path
           id="path142"
           d="M 57.744,597.394 C 57.384,597.25 56.88,596.89 56.52,596.746 L 56.16,596.314 C 56.376,596.386 57.24,596.602 57.384,596.89 L 57.744,597.394 z" />
      </g>
      <g
         transform="translate(36.0581,-80.79684)"
         id="g144"
         style="fill:#000000">
        <path
           id="path146"
           d="M 37.944,596.818 C 37.944,596.674 37.728,596.458 37.8,596.17 L 37.944,596.098 L 38.16,596.17 C 38.304,596.386 38.16,596.53 38.088,596.818 L 37.944,596.818 z" />
      </g>
      <g
         transform="translate(36.0581,-80.79684)"
         id="g148"
         style="fill:#000000">
        <path
           id="path150"
           d="M 37.08,596.746 C 36.864,596.674 36.504,596.53 36.36,596.314 L 36.36,596.026 C 36.648,595.81 36.864,595.81 37.224,595.81 C 37.512,595.882 37.512,596.314 37.512,596.674 L 37.08,596.746 z" />
      </g>
      <g
         transform="translate(36.0581,-80.79684)"
         id="g152"
         style="fill:#000000">
        <path
           id="path154"
           d="M 55.44,596.818 C 54.936,596.458 54.288,596.386 53.784,596.098 C 54.288,596.026 54.864,596.314 55.44,596.386 L 55.584,596.17 C 55.368,595.81 55.152,595.738 54.72,595.45 L 54.288,595.666 C 54.144,595.162 53.928,595.306 53.568,594.802 C 54.288,595.018 55.152,595.738 56.16,595.594 C 56.016,594.874 55.44,595.09 55.08,594.514 C 55.656,594.658 56.088,594.802 56.448,595.594 C 56.376,596.026 56.16,595.594 55.8,595.882 C 55.656,596.026 56.088,596.458 55.584,596.602 L 55.44,596.818 z" />
      </g>
      <g
         transform="translate(36.0581,-80.79684)"
         id="g156"
         style="fill:#000000">
        <path
           id="path158"
           d="M 53.568,595.738 L 53.352,595.666 C 53.352,595.018 54,595.738 53.568,595.738 z" />
      </g>
      <g
         transform="translate(36.0581,-80.79684)"
         id="g160"
         style="fill:#000000">
        <path
           id="path162"
           d="M 58.68,596.026 C 58.392,595.882 57.384,595.522 57.096,595.162 C 57.384,595.162 58.464,595.666 58.68,596.026 z" />
      </g>
      <g
         transform="translate(36.0581,-80.79684)"
         id="g164"
         style="fill:#000000">
        <path
           id="path166"
           d="M 54.576,595.018 L 54.576,594.586 C 54.288,594.514 54.288,594.298 54,594.154 C 54.288,594.01 54.576,594.154 54.936,594.01 C 54.936,593.794 54.576,593.794 54.288,593.578 C 54.576,593.506 54.864,593.578 55.152,593.506 C 55.296,593.146 54.864,593.218 54.72,592.93 L 55.008,592.93 C 55.584,593.578 56.016,593.938 56.736,594.586 L 55.152,593.866 L 55.152,594.154 C 55.008,594.37 54.864,593.938 54.504,594.226 C 54.72,594.298 54.648,594.586 54.864,594.802 L 54.576,595.018 z" />
      </g>
      <g
         transform="translate(36.0581,-80.79684)"
         id="g168"
         style="fill:#000000">
        <path
           id="path170"
           d="M 59.04,595.09 C 58.896,594.946 57.888,595.09 57.672,594.37 C 57.888,594.298 58.896,594.946 59.04,595.09 z" />
      </g>
      <g
         transform="translate(36.0581,-80.79684)"
         id="g172"
         style="fill:#000000">
        <path
           id="path174"
           d="M 56.88,594.01 C 56.736,593.578 56.448,593.29 55.872,593.002 L 55.656,592.426 C 55.584,592.21 55.152,592.138 54.936,592.066 C 55.368,591.85 55.8,592.354 56.016,592.858 C 56.376,593.002 56.808,593.218 57.24,593.146 L 57.24,592.858 L 55.8,592.066 L 56.016,591.85 C 56.016,591.634 55.728,591.562 55.584,591.274 C 55.728,591.346 56.088,591.274 56.376,591.346 L 56.448,591.058 C 56.376,590.914 56.016,590.77 55.728,590.626 C 56.016,590.338 56.376,590.698 56.736,590.482 L 56.736,590.266 C 56.52,590.194 56.232,590.05 56.088,589.762 C 56.376,589.762 56.592,589.906 56.952,589.762 C 57.096,589.474 56.88,589.258 56.52,589.186 C 56.592,588.754 57.312,589.258 57.312,588.754 C 57.096,588.754 57.168,588.466 56.808,588.394 L 57.456,588.25 L 57.6,588.034 C 57.6,587.746 57.24,587.89 57.24,587.53 C 57.456,587.674 57.816,587.458 57.888,587.314 L 57.6,586.81 L 58.176,586.738 L 58.176,586.522 C 57.96,586.378 57.672,586.306 57.6,586.162 L 58.032,586.162 C 58.32,585.874 57.96,585.658 57.672,585.514 C 57.816,585.226 58.032,585.37 58.32,585.298 L 57.96,584.938 C 58.176,585.01 58.536,584.578 58.176,584.506 L 58.392,584.434 C 58.608,584.65 58.536,585.01 58.608,585.37 L 58.176,585.37 L 58.176,585.658 C 58.68,585.946 59.4,585.874 59.832,585.586 C 59.76,585.514 59.472,585.37 59.256,585.226 C 59.256,584.938 59.76,585.226 59.832,584.794 L 59.328,584.506 C 59.472,584.362 59.76,584.506 60.048,584.434 C 60.48,584.794 60.048,584.794 59.976,585.154 C 60.552,585.586 59.688,585.874 60.12,586.522 L 59.616,586.738 L 59.688,587.17 C 59.4,587.314 59.112,587.53 58.752,587.458 C 58.896,587.53 58.968,587.818 59.112,588.106 L 58.536,588.178 C 58.536,588.466 59.04,588.466 59.04,588.826 C 59.04,588.97 58.68,589.186 58.392,589.258 L 58.68,589.762 L 58.248,589.978 C 58.248,590.194 58.32,590.41 58.536,590.698 L 58.176,591.058 L 58.32,591.562 C 58.248,591.706 57.888,591.634 57.6,591.706 C 58.32,592.21 59.616,591.994 60.408,592.642 L 58.032,592.138 L 57.816,592.498 L 57.24,592.426 C 57.096,592.642 57.456,592.93 57.528,593.29 C 57.96,593.506 58.392,593.506 58.968,593.866 L 56.52,593.218 C 56.736,593.29 56.808,593.65 56.952,593.938 L 56.88,594.01 z" />
      </g>
      <g
         transform="translate(36.0581,-80.79684)"
         id="g176"
         style="fill:#000000">
        <path
           id="path178"
           d="M 57.312,592.354 C 57.096,592.354 56.736,592.21 56.232,592.066 L 56.16,591.634 C 56.592,591.346 57.168,591.85 57.672,592.066 L 57.312,592.354 z" />
      </g>
      <g
         transform="translate(36.0581,-80.79684)"
         id="g180"
         style="fill:#000000">
        <path
           id="path182"
           d="M 53.064,591.778 C 53.352,592.642 57.744,583.426 56.808,583.786 C 56.664,583.642 52.632,592.066 53.064,591.778 z" />
      </g>
      <g
         transform="translate(36.0581,-80.79684)"
         id="g184"
         style="fill:#000000">
        <path
           id="path186"
           d="M 60.768,591.058 C 61.632,591.274 58.968,589.834 59.112,590.338 L 60.768,591.058 z" />
      </g>
      <g
         transform="translate(36.0581,-80.79684)"
         id="g188"
         style="fill:#000000">
        <path
           id="path190"
           d="M 57.96,590.698 C 57.528,590.698 57.24,590.338 56.736,590.05 C 57.24,589.906 57.888,590.05 58.248,590.626 L 57.96,590.698 z" />
      </g>
      <g
         transform="translate(36.0581,-80.79684)"
         id="g192"
         style="fill:#000000">
        <path
           id="path194"
           d="M 61.632,590.41 C 61.128,590.338 59.4,589.834 59.976,589.762 C 60.48,589.978 61.2,590.05 61.632,590.41 z" />
      </g>
      <g
         transform="translate(36.0581,-80.79684)"
         id="g196"
         style="fill:#000000">
        <path
           id="path198"
           d="M 57.672,589.762 C 57.528,589.618 57.168,589.546 56.952,589.258 C 57.312,589.114 57.96,589.258 58.248,589.762 L 57.672,589.762 z" />
      </g>
      <g
         transform="translate(36.0581,-80.79684)"
         id="g200"
         style="fill:#000000">
        <path
           id="path202"
           d="M 61.488,589.546 C 61.2,589.474 60.768,589.33 60.408,589.114 C 60.768,589.114 61.2,589.114 61.488,589.546 z" />
      </g>
      <g
         transform="translate(36.0581,-80.79684)"
         id="g204"
         style="fill:#000000">
        <path
           id="path206"
           d="M 57.672,588.97 L 57.456,588.538 C 57.816,588.394 58.536,588.538 58.68,588.898 C 58.392,589.114 58.032,588.898 57.672,588.97 z" />
      </g>
      <g
         transform="translate(36.0581,-80.79684)"
         id="g208"
         style="fill:#000000">
        <path
           id="path210"
           d="M 61.704,588.682 C 61.272,588.538 60.768,588.394 60.192,588.178 C 59.472,587.674 62.28,588.538 61.704,588.682 z" />
      </g>
      <g
         transform="translate(36.0581,-80.79684)"
         id="g212"
         style="fill:#000000">
        <path
           id="path214"
           d="M 58.032,588.034 L 57.888,587.89 L 57.96,587.746 C 58.176,587.746 58.536,587.674 58.68,587.89 L 58.032,588.034 z" />
      </g>
      <g
         transform="translate(36.0581,-80.79684)"
         id="g216"
         style="fill:#000000">
        <path
           id="path218"
           d="M 62.568,587.89 C 62.928,588.25 61.272,587.53 60.552,587.314 C 59.904,586.594 61.92,587.746 62.64,587.818 L 62.568,587.89 z" />
      </g>
      <g
         transform="translate(36.0581,-80.79684)"
         id="g220"
         style="fill:#000000">
        <path
           id="path222"
           d="M 58.392,587.314 L 58.248,587.17 L 58.32,587.026 C 58.608,586.954 58.968,586.954 59.328,587.098 C 59.112,587.314 58.896,587.098 58.608,587.17 L 58.392,587.314 z" />
      </g>
      <g
         transform="translate(36.0581,-80.79684)"
         id="g224"
         style="fill:#000000">
        <path
           id="path226"
           d="M 58.608,586.522 L 58.248,586.306 C 58.608,586.234 59.328,586.018 59.688,586.522 C 59.4,586.522 59.04,586.522 58.608,586.522 z" />
      </g>
      <g
         transform="translate(36.0581,-80.79684)"
         id="g228"
         style="fill:#000000">
        <path
           id="path230"
           d="M 59.256,584.074 C 59.4,584.002 59.76,583.642 60.12,583.498 L 60.192,583.066 L 59.76,583.066 C 60.048,582.994 60.192,582.706 60.552,582.562 C 60.552,582.058 60.12,582.346 59.76,582.274 C 59.832,581.914 60.408,581.914 60.768,581.626 C 60.696,581.266 60.12,581.626 59.76,581.482 C 59.832,580.978 60.696,581.194 60.84,580.69 L 60.696,580.474 C 60.408,580.474 60.192,580.474 59.832,580.546 C 59.976,580.258 60.696,580.258 60.84,579.826 C 60.552,579.826 60.192,579.898 60.048,579.682 C 60.048,579.538 60.336,579.466 60.552,579.322 L 60.192,579.034 C 60.192,578.674 60.768,578.314 60.912,578.026 L 60.12,578.17 C 60.336,577.81 60.696,577.594 61.128,577.234 C 61.2,577.378 61.56,577.018 61.632,577.378 C 61.272,577.666 61.56,578.386 60.912,578.746 L 60.984,579.178 C 60.912,579.322 60.84,579.322 60.768,579.61 C 61.056,579.754 61.2,579.466 61.344,579.826 C 62.28,579.538 62.784,578.602 63.72,578.17 C 64.152,577.81 65.448,576.37 65.16,577.018 L 60.984,580.978 C 60.984,581.554 60.984,581.122 61.344,581.338 L 64.944,578.602 C 66.168,578.53 60.984,580.978 60.552,583.354 C 60.336,583.498 59.688,584.074 59.256,584.074 z" />
      </g>
      <g
         transform="translate(36.0581,-80.79684)"
         id="g232"
         style="fill:#000000">
        <path
           id="path234"
           d="M 60.84,584.074 C 60.768,584.074 64.728,583.282 64.728,583.282 C 64.944,582.85 59.904,583.858 60.84,584.074 z" />
      </g>
      <g
         transform="translate(36.0581,-80.79684)"
         id="g236"
         style="fill:#000000">
        <path
           id="path238"
           d="M 57.168,582.418 C 57.168,583.858 58.608,579.538 58.464,579.178 C 58.536,577.81 57.168,582.058 57.168,582.418 z" />
      </g>
      <g
         transform="translate(36.0581,-80.79684)"
         id="g240"
         style="fill:#000000">
        <path
           id="path242"
           d="M 62.712,582.058 L 65.232,580.186 C 64.8,581.194 63.792,581.482 62.784,582.058 L 62.712,582.058 z" />
      </g>
      <g
         transform="translate(36.0581,-80.79684)"
         id="g244"
         style="fill:#000000">
        <path
           id="path246"
           d="M 61.56,578.962 C 61.704,579.25 65.592,575.722 65.952,575.362 C 65.808,575.002 61.416,578.89 61.56,578.962 z" />
      </g>
      <g
         transform="translate(36.0581,-80.79684)"
         id="g248"
         style="fill:#000000">
        <path
           id="path250"
           d="M 58.752,578.53 C 57.096,579.106 64.152,572.338 67.032,570.394 L 67.392,570.538 L 58.752,578.53 z" />
      </g>
      <g
         transform="translate(36.0581,-80.79684)"
         id="g252"
         style="fill:#000000">
        <path
           id="path254"
           d="M 64.512,573.994 C 63.576,574.426 65.52,572.914 66.24,572.842 C 65.952,573.274 65.16,573.562 64.584,573.994 L 64.512,573.994 z" />
      </g>
      <g
         transform="matrix(0.987802,0.155717,-0.155717,0.987802,89.03707,-6.592313)"
         id="g3060">
        <g
           style="fill:#000000"
           id="g256"
           transform="translate(36.0581,-80.79684)">
          <path
             d="M 17.352,660.394 L 18.288,661.114 L 16.992,663.058 C 16.848,663.274 16.704,663.418 16.488,663.562 C 16.344,663.706 16.128,663.778 15.912,663.85 C 15.696,663.85 15.552,663.85 15.336,663.85 C 15.12,663.778 14.832,663.634 14.616,663.418 C 14.4,663.346 14.256,663.202 14.112,663.058 C 13.896,662.842 13.824,662.698 13.752,662.554 C 13.68,662.41 13.608,662.194 13.608,662.05 C 13.536,661.834 13.608,661.618 13.608,661.474 C 13.68,661.186 13.824,661.042 13.896,660.826 L 15.264,658.882 L 16.2,659.602 L 14.904,661.618 C 14.76,661.762 14.688,661.978 14.76,662.122 C 14.76,662.338 14.832,662.482 15.048,662.626 C 15.192,662.698 15.336,662.77 15.552,662.77 C 15.696,662.698 15.84,662.626 15.984,662.41 L 17.352,660.394 z"
             id="path258" />
        </g>
        <g
           style="fill:#000000"
           id="g260"
           transform="translate(36.0581,-80.79684)">
          <path
             d="M 18.864,661.474 L 19.8,662.05 L 19.872,664.786 L 21.024,662.914 L 22.032,663.562 L 19.872,666.946 L 18.936,666.37 L 18.864,663.634 L 17.712,665.506 L 16.776,664.858 L 18.864,661.474 z"
             id="path262" />
        </g>
        <g
           style="fill:#000000"
           id="g264"
           transform="translate(36.0581,-80.79684)">
          <path
             d="M 22.536,663.634 L 23.616,664.21 L 21.816,667.81 L 20.736,667.234 L 22.536,663.634 z"
             id="path266" />
        </g>
        <g
           style="fill:#000000"
           id="g268"
           transform="translate(36.0581,-80.79684)">
          <path
             d="M 23.832,664.354 L 24.984,664.93 L 24.624,667.954 L 26.568,665.65 L 27.72,666.226 L 24.768,669.25 L 23.544,668.674 L 23.832,664.354 z"
             id="path270" />
        </g>
        <g
           style="fill:#000000"
           id="g272"
           transform="translate(36.0581,-80.79684)">
          <path
             d="M 28.008,666.298 L 31.032,667.45 L 30.744,668.242 L 28.872,667.522 L 28.656,668.17 L 30.456,668.818 L 30.168,669.61 L 28.368,668.962 L 28.152,669.682 L 30.096,670.402 L 29.808,671.266 L 26.712,670.186 L 28.008,666.298 z"
             id="path274" />
        </g>
        <g
           style="fill:#000000"
           id="g276"
           transform="translate(36.0581,-80.79684)">
          <path
             d="M 32.832,667.954 L 33.48,668.098 C 33.84,668.242 34.056,668.314 34.272,668.458 C 34.416,668.602 34.56,668.746 34.632,668.962 C 34.704,669.178 34.704,669.394 34.632,669.682 C 34.56,669.898 34.488,670.042 34.344,670.186 C 34.2,670.33 34.056,670.402 33.84,670.474 C 33.768,670.474 33.624,670.474 33.408,670.474 C 33.552,670.546 33.624,670.618 33.696,670.69 C 33.696,670.762 33.768,670.834 33.768,670.978 C 33.84,671.122 33.912,671.194 33.912,671.266 L 34.128,672.562 L 32.832,672.202 L 32.832,669.682 C 32.904,669.682 32.976,669.682 33.048,669.682 C 33.12,669.682 33.192,669.682 33.264,669.61 C 33.336,669.538 33.408,669.466 33.408,669.394 C 33.48,669.25 33.48,669.178 33.408,669.106 C 33.336,668.962 33.192,668.89 32.976,668.818 L 32.832,668.818 L 32.832,667.954 z"
             id="path278" />
        </g>
        <g
           style="fill:#000000"
           id="g280"
           transform="translate(36.0581,-80.79684)">
          <path
             d="M 30.456,671.482 L 31.536,667.522 L 32.832,667.954 L 32.832,668.818 L 32.472,668.674 L 32.256,669.466 L 32.76,669.61 C 32.76,669.61 32.832,669.61 32.832,669.682 L 32.832,672.202 L 32.832,672.202 L 32.544,670.762 C 32.472,670.618 32.472,670.474 32.4,670.402 C 32.328,670.33 32.256,670.258 32.184,670.258 L 32.04,670.258 L 31.608,671.842 L 30.456,671.482 z"
             id="path282" />
        </g>
        <g
           style="fill:#000000"
           id="g284"
           transform="translate(36.0581,-80.79684)">
          <path
             d="M 34.56,671.266 L 35.712,671.41 C 35.712,671.626 35.712,671.77 35.784,671.842 C 35.856,672.058 36,672.202 36.216,672.202 C 36.432,672.274 36.576,672.274 36.648,672.202 C 36.792,672.13 36.864,672.058 36.864,671.914 C 36.864,671.842 36.864,671.698 36.792,671.626 C 36.72,671.482 36.504,671.41 36.216,671.266 C 35.712,671.05 35.352,670.762 35.208,670.546 C 34.992,670.33 34.92,670.042 34.992,669.682 C 35.064,669.538 35.136,669.322 35.28,669.178 C 35.424,669.034 35.64,668.89 35.856,668.818 C 36.144,668.746 36.432,668.818 36.864,668.89 C 37.368,668.962 37.728,669.106 37.944,669.394 C 38.16,669.61 38.232,669.97 38.232,670.402 L 37.08,670.258 C 37.08,670.042 37.008,669.898 36.936,669.826 C 36.864,669.682 36.792,669.61 36.576,669.61 C 36.432,669.538 36.36,669.538 36.288,669.61 C 36.216,669.682 36.144,669.754 36.144,669.826 C 36.072,669.898 36.144,669.97 36.144,670.042 C 36.216,670.042 36.36,670.186 36.576,670.258 C 37.008,670.474 37.368,670.618 37.584,670.834 C 37.8,670.978 37.944,671.194 38.016,671.338 C 38.088,671.554 38.088,671.77 38.016,671.986 C 38.016,672.274 37.872,672.49 37.728,672.634 C 37.512,672.85 37.296,672.994 37.008,672.994 C 36.792,673.066 36.432,673.066 36.072,672.994 C 35.424,672.85 34.992,672.634 34.776,672.346 C 34.632,672.058 34.488,671.698 34.56,671.266 z"
             id="path286" />
        </g>
        <g
           style="fill:#000000"
           id="g288"
           transform="translate(36.0581,-80.79684)">
          <path
             d="M 38.952,669.322 L 40.104,669.538 L 39.672,673.57 L 38.448,673.426 L 38.952,669.322 z"
             id="path290" />
        </g>
        <g
           style="fill:#000000"
           id="g292"
           transform="translate(36.0581,-80.79684)">
          <path
             d="M 42.408,669.754 L 42.624,669.754 C 42.984,669.826 43.272,669.898 43.488,669.97 C 43.704,670.114 43.848,670.258 43.992,670.474 C 44.064,670.69 44.208,670.906 44.208,671.122 C 44.28,671.41 44.28,671.698 44.28,671.914 C 44.208,672.346 44.136,672.706 43.992,672.922 C 43.92,673.138 43.776,673.354 43.56,673.498 C 43.416,673.642 43.2,673.714 42.984,673.786 C 42.768,673.786 42.624,673.858 42.408,673.858 L 42.408,672.85 C 42.48,672.85 42.552,672.85 42.624,672.85 C 42.696,672.778 42.84,672.706 42.912,672.562 C 42.984,672.418 42.984,672.202 43.056,671.842 C 43.056,671.41 43.056,671.122 42.912,670.978 C 42.84,670.834 42.624,670.69 42.408,670.69 L 42.408,669.754 z"
             id="path294" />
        </g>
        <g
           style="fill:#000000"
           id="g296"
           transform="translate(36.0581,-80.79684)">
          <path
             d="M 40.824,669.61 L 42.408,669.754 L 42.408,670.69 C 42.336,670.69 42.336,670.69 42.264,670.69 L 41.976,670.618 L 41.76,672.85 L 42.048,672.85 C 42.192,672.922 42.336,672.922 42.408,672.85 L 42.408,673.858 C 42.336,673.858 42.336,673.858 42.264,673.858 L 40.464,673.642 L 40.824,669.61 z"
             id="path298" />
        </g>
        <g
           style="fill:#000000"
           id="g300"
           transform="translate(36.0581,-80.79684)">
          <path
             d="M 46.944,673.354 L 46.296,673.354 L 46.296,672.49 L 46.728,672.49 L 46.368,670.978 L 46.296,671.194 L 46.296,669.97 L 47.088,669.97 L 48.312,674.146 L 47.088,674.074 L 46.944,673.354 z"
             id="path302" />
        </g>
        <g
           style="fill:#000000"
           id="g304"
           transform="translate(36.0581,-80.79684)">
          <path
             d="M 46.296,673.354 L 45.576,673.282 L 45.36,674.002 L 44.064,673.93 L 45.792,669.898 L 46.296,669.97 L 46.296,671.194 L 45.864,672.418 L 46.296,672.49 L 46.296,673.354 z"
             id="path306" />
        </g>
        <g
           style="fill:#000000"
           id="g308"
           transform="translate(36.0581,-80.79684)">
          <path
             d="M 50.328,669.898 C 50.616,669.826 50.832,669.898 51.048,669.97 C 51.264,670.042 51.48,670.186 51.624,670.33 C 51.768,670.474 51.912,670.69 51.984,670.978 C 52.056,671.194 52.128,671.482 52.128,671.698 C 52.2,672.13 52.2,672.49 52.128,672.778 C 52.056,672.994 51.912,673.21 51.768,673.354 C 51.624,673.57 51.408,673.714 51.264,673.786 C 50.976,673.858 50.76,673.93 50.544,673.93 L 50.328,673.93 L 50.328,672.994 C 50.472,672.994 50.616,672.922 50.688,672.922 C 50.832,672.85 50.904,672.706 50.904,672.562 C 50.976,672.418 50.976,672.202 50.976,671.842 C 50.904,671.41 50.832,671.122 50.688,670.978 C 50.616,670.906 50.472,670.834 50.328,670.834 L 50.328,669.898 z"
             id="path310" />
        </g>
        <g
           style="fill:#000000"
           id="g312"
           transform="translate(36.0581,-80.79684)">
          <path
             d="M 48.384,670.042 L 50.184,669.898 C 50.256,669.898 50.256,669.898 50.328,669.898 L 50.328,670.834 C 50.256,670.834 50.112,670.834 49.968,670.834 L 49.68,670.834 L 49.896,673.066 L 50.184,673.066 C 50.256,673.066 50.256,672.994 50.328,672.994 L 50.328,673.93 L 48.744,674.074 L 48.384,670.042 z"
             id="path314" />
        </g>
      </g>
      <g
         transform="translate(-0.667742,0.333871)"
         id="g3092">
        <g
           style="fill:#000000"
           id="g316"
           transform="translate(36.0581,-80.79684)">
          <path
             d="M 54,669.538 L 55.08,669.322 L 56.952,671.194 L 56.52,668.962 L 57.6,668.746 L 58.464,672.706 L 57.312,672.994 L 55.44,671.122 L 55.872,673.282 L 54.792,673.57 L 54,669.538 z"
             id="path318" />
        </g>
        <g
           style="fill:#000000"
           id="g320"
           transform="translate(36.0581,-80.79684)">
          <path
             d="M 61.344,671.338 L 60.48,671.554 L 60.48,670.618 L 60.912,670.546 L 60.48,669.754 L 60.48,668.026 L 60.624,668.026 L 62.928,671.626 L 61.704,671.986 L 61.344,671.338 z"
             id="path322" />
        </g>
        <g
           style="fill:#000000"
           id="g324"
           transform="translate(36.0581,-80.79684)">
          <path
             d="M 60.48,671.554 L 60.048,671.698 L 59.976,672.346 L 58.752,672.634 L 59.328,668.314 L 60.48,668.026 L 60.48,669.754 L 60.192,669.25 L 60.12,670.762 L 60.48,670.618 L 60.48,671.554 z"
             id="path326" />
        </g>
        <g
           style="fill:#000000"
           id="g328"
           transform="translate(36.0581,-80.79684)">
          <path
             d="M 65.088,669.034 L 66.168,668.962 C 66.24,669.322 66.168,669.61 66.096,669.826 C 66.024,670.114 65.952,670.33 65.736,670.474 C 65.592,670.69 65.304,670.834 65.016,670.906 C 64.584,671.122 64.224,671.122 63.936,671.122 C 63.648,671.122 63.36,670.978 63.072,670.762 C 62.784,670.474 62.568,670.114 62.352,669.682 C 62.136,669.034 62.136,668.458 62.352,668.026 C 62.568,667.594 62.928,667.234 63.576,667.018 C 64.008,666.802 64.44,666.802 64.728,666.874 C 65.088,666.946 65.376,667.162 65.664,667.522 L 64.728,668.17 C 64.656,668.026 64.584,667.954 64.512,667.954 C 64.44,667.882 64.296,667.81 64.224,667.81 C 64.08,667.81 64.008,667.81 63.864,667.882 C 63.648,667.954 63.504,668.17 63.432,668.386 C 63.36,668.602 63.432,668.89 63.504,669.25 C 63.648,669.682 63.864,669.898 64.008,670.042 C 64.152,670.114 64.368,670.186 64.584,670.042 C 64.8,669.97 64.944,669.898 65.016,669.682 C 65.088,669.538 65.088,669.322 65.088,669.034 z"
             id="path330" />
        </g>
        <g
           style="fill:#000000"
           id="g332"
           transform="translate(36.0581,-80.79684)">
          <path
             d="M 65.736,666.226 L 66.816,665.722 L 68.328,669.466 L 67.248,669.97 L 65.736,666.226 z"
             id="path334" />
        </g>
        <g
           style="fill:#000000"
           id="g336"
           transform="translate(36.0581,-80.79684)">
          <path
             d="M 69.912,664.354 C 70.128,664.282 70.344,664.354 70.56,664.354 C 71.064,664.57 71.424,664.93 71.712,665.506 C 71.928,665.866 72,666.298 72,666.658 C 72,666.946 71.928,667.306 71.784,667.594 C 71.568,667.882 71.28,668.098 70.92,668.314 C 70.56,668.53 70.272,668.674 69.912,668.674 L 69.912,667.594 C 70.128,667.666 70.272,667.594 70.488,667.522 C 70.704,667.378 70.848,667.234 70.848,667.018 C 70.92,666.802 70.848,666.442 70.632,666.082 C 70.488,665.722 70.272,665.506 70.056,665.434 C 70.056,665.434 69.984,665.362 69.912,665.362 L 69.912,664.354 z"
             id="path338" />
        </g>
        <g
           style="fill:#000000"
           id="g340"
           transform="translate(36.0581,-80.79684)">
          <path
             d="M 68.184,667.522 C 67.824,666.874 67.752,666.37 67.896,665.866 C 68.04,665.362 68.4,664.93 68.976,664.642 C 69.336,664.426 69.624,664.354 69.912,664.354 L 69.912,665.362 C 69.768,665.362 69.624,665.362 69.408,665.506 C 69.192,665.578 69.048,665.794 69.048,666.01 C 68.976,666.226 69.048,666.514 69.192,666.874 C 69.408,667.234 69.624,667.522 69.84,667.594 C 69.84,667.594 69.912,667.594 69.912,667.594 L 69.912,668.674 C 69.912,668.674 69.912,668.674 69.84,668.674 C 69.552,668.674 69.192,668.602 68.904,668.386 C 68.616,668.242 68.4,667.882 68.184,667.522 z"
             id="path342" />
        </g>
        <g
           style="fill:#000000"
           id="g344"
           transform="translate(36.0581,-80.79684)">
          <path
             d="M 71.208,663.562 L 72.144,662.914 L 74.52,664.066 L 73.44,662.122 L 74.376,661.546 L 76.392,665.002 L 75.456,665.65 L 73.08,664.498 L 74.16,666.442 L 73.224,667.018 L 71.208,663.562 z"
             id="path346" />
        </g>
        <g
           style="fill:#000000"
           id="g348"
           transform="translate(36.0581,-80.79684)">
          <path
             d="M 78.624,662.554 L 77.472,663.418 L 77.688,664.066 L 77.328,664.354 L 77.328,662.41 L 77.904,661.978 L 77.328,661.546 L 77.328,660.25 L 80.136,662.266 L 79.128,662.986 L 78.624,662.554 z"
             id="path350" />
        </g>
        <g
           style="fill:#000000"
           id="g352"
           transform="translate(36.0581,-80.79684)">
          <path
             d="M 77.328,664.354 L 76.68,664.786 L 75.672,660.61 L 76.752,659.818 L 77.328,660.25 L 77.328,661.546 L 76.752,661.042 L 77.184,662.482 L 77.328,662.41 L 77.328,664.354 z"
             id="path354" />
        </g>
        <g
           style="fill:#000000"
           id="g356"
           transform="translate(36.0581,-80.79684)">
          <path
             d="M 77.976,658.954 L 78.84,658.09 L 80.784,660.466 L 82.224,659.17 L 82.872,659.89 L 80.496,662.05 L 77.976,658.954 z"
             id="path358" />
        </g>
      </g>
      <g
         transform="translate(36.0581,-80.79684)"
         id="g360"
         style="fill:#000000">
        <path
           id="path362"
           d="M 84.384,653.482 C 84.456,653.482 84.528,653.482 84.528,653.482 C 84.744,653.482 84.96,653.554 85.176,653.698 C 85.392,653.842 85.608,653.986 85.824,654.202 C 86.112,654.49 86.328,654.778 86.4,654.994 C 86.472,655.21 86.544,655.498 86.544,655.714 C 86.544,655.93 86.472,656.146 86.328,656.362 C 86.184,656.578 86.112,656.794 85.896,656.938 L 84.672,658.306 L 84.384,658.018 L 84.384,656.218 L 84.888,656.722 L 85.104,656.506 C 85.248,656.362 85.392,656.218 85.392,656.074 C 85.464,655.93 85.464,655.786 85.392,655.642 C 85.32,655.498 85.176,655.354 84.96,655.066 C 84.744,654.85 84.6,654.706 84.384,654.634 L 84.384,653.482 z" />
      </g>
      <g
         transform="translate(36.0581,-80.79684)"
         id="g364"
         style="fill:#000000">
        <path
           id="path366"
           d="M 81.864,655.426 L 83.16,654.058 C 83.448,653.842 83.664,653.626 83.88,653.554 C 84.024,653.482 84.24,653.482 84.384,653.482 L 84.384,654.634 C 84.312,654.634 84.312,654.634 84.24,654.634 C 84.024,654.634 83.808,654.706 83.592,654.922 L 83.376,655.138 L 84.384,656.218 L 84.384,658.018 L 81.864,655.426 z" />
      </g>
      <g
         transform="translate(36.0581,-80.79684)"
         id="g368"
         style="fill:#000000">
        <path
           id="path370"
           d="M 84.672,652.618 L 86.76,650.026 L 87.408,650.53 L 86.112,652.186 L 86.544,652.618 L 87.768,651.106 L 88.344,651.61 L 87.192,653.122 L 87.768,653.626 L 89.064,651.97 L 89.784,652.546 L 87.696,655.21 L 84.672,652.618 z" />
      </g>
      <g
         transform="translate(36.0581,-80.79684)"
         id="g372"
         style="fill:#000000">
        <path
           id="path374"
           d="M 88.2,648.082 L 88.92,647.074 L 91.296,648.874 L 92.448,647.362 L 93.168,647.938 L 91.296,650.53 L 88.2,648.082 z" />
      </g>
      <g
         transform="translate(36.0581,-80.79684)"
         id="g376"
         style="fill:#000000">
        <path
           id="path378"
           d="M 94.176,644.986 L 93.528,646.21 L 93.96,646.714 L 93.312,647.794 L 92.664,646.93 L 92.664,645.202 L 92.88,645.49 L 93.312,644.77 L 92.664,644.554 L 92.664,643.474 L 95.472,644.05 L 94.824,645.13 L 94.176,644.986 z" />
      </g>
      <g
         transform="translate(36.0581,-80.79684)"
         id="g380"
         style="fill:#000000">
        <path
           id="path382"
           d="M 92.664,646.93 L 90.72,644.41 L 91.368,643.258 L 92.664,643.474 L 92.664,644.554 L 91.944,644.41 L 92.664,645.202 L 92.664,646.93 z" />
      </g>
      <g
         transform="translate(36.0581,-80.79684)"
         id="g384"
         style="fill:#000000">
        <path
           id="path386"
           d="M 94.896,637.57 C 95.112,637.498 95.4,637.57 95.688,637.714 C 96.048,637.858 96.264,638.146 96.336,638.434 C 96.48,638.794 96.408,639.154 96.192,639.658 L 95.832,640.234 L 97.128,640.954 L 96.624,642.034 L 94.896,641.17 L 94.896,639.73 L 95.184,639.874 L 95.328,639.586 C 95.4,639.37 95.472,639.226 95.4,639.082 C 95.4,638.938 95.328,638.866 95.184,638.794 C 95.112,638.722 94.968,638.722 94.896,638.794 L 94.896,637.57 z" />
      </g>
      <g
         transform="translate(36.0581,-80.79684)"
         id="g388"
         style="fill:#000000">
        <path
           id="path390"
           d="M 93.096,640.234 L 94.032,638.362 C 94.248,637.93 94.464,637.714 94.752,637.57 C 94.824,637.57 94.824,637.57 94.896,637.57 L 94.896,638.794 L 94.896,638.794 C 94.752,638.794 94.608,638.938 94.536,639.154 L 94.392,639.442 L 94.896,639.73 L 94.896,641.17 L 93.096,640.234 z" />
      </g>
      <g
         transform="translate(36.0581,-80.79684)"
         id="g392"
         style="fill:#000000">
        <path
           id="path394"
           d="M 98.496,636.202 L 97.992,637.57 L 98.496,638.002 L 97.992,639.154 L 96.912,638.074 L 96.912,636.634 L 97.272,636.922 L 97.632,636.13 L 96.912,636.058 L 96.912,634.978 L 99.648,635.122 L 99.144,636.274 L 98.496,636.202 z" />
      </g>
      <g
         transform="translate(36.0581,-80.79684)"
         id="g396"
         style="fill:#000000">
        <path
           id="path398"
           d="M 96.912,638.074 L 94.968,636.202 L 95.472,634.906 L 96.912,634.978 L 96.912,636.058 L 96.192,635.986 L 96.912,636.634 L 96.912,638.074 z" />
      </g>
      <g
         transform="translate(36.0581,-80.79684)"
         id="g400"
         style="fill:#000000">
        <path
           id="path402"
           d="M 95.904,633.898 L 97.2,630.37 L 98.136,630.73 L 97.704,631.882 L 100.44,632.962 L 100.008,634.186 L 97.272,633.034 L 96.84,634.258 L 95.904,633.898 z" />
      </g>
      <g
         transform="translate(36.0581,-80.79684)"
         id="g404"
         style="fill:#000000">
        <path
           id="path406"
           d="M 100.944,629.074 L 100.584,630.442 L 101.16,630.802 L 100.8,632.026 L 99.36,630.946 L 99.36,629.65 L 99.792,629.938 L 100.08,629.074 L 99.36,629.074 L 99.36,628.066 L 101.952,627.778 L 101.592,629.074 L 100.944,629.074 z" />
      </g>
      <g
         transform="translate(36.0581,-80.79684)"
         id="g408"
         style="fill:#000000">
        <path
           id="path410"
           d="M 99.36,630.946 L 97.416,629.506 L 97.776,628.138 L 99.36,628.066 L 99.36,629.074 L 98.568,629.146 L 99.36,629.65 L 99.36,630.946 z" />
      </g>
      <g
         transform="translate(36.0581,-80.79684)"
         id="g412"
         style="fill:#000000">
        <path
           id="path414"
           d="M 100.944,625.258 L 100.152,625.114 L 100.512,623.17 L 102.096,623.458 C 102.312,623.89 102.384,624.25 102.456,624.538 C 102.456,624.826 102.456,625.186 102.384,625.546 C 102.312,626.05 102.168,626.41 101.952,626.698 C 101.736,626.986 101.52,627.13 101.16,627.274 C 100.8,627.346 100.44,627.418 100.08,627.346 C 99.648,627.202 99.288,627.058 99,626.842 C 98.712,626.626 98.568,626.266 98.424,625.906 C 98.352,625.618 98.352,625.258 98.424,624.754 C 98.496,624.322 98.64,624.034 98.712,623.818 C 98.856,623.602 99,623.458 99.144,623.314 C 99.36,623.242 99.576,623.17 99.864,623.098 L 99.864,624.322 C 99.72,624.394 99.576,624.466 99.432,624.538 C 99.36,624.61 99.288,624.754 99.288,624.97 C 99.216,625.258 99.288,625.474 99.432,625.69 C 99.576,625.834 99.864,625.978 100.224,626.05 C 100.656,626.122 101.016,626.122 101.16,625.978 C 101.376,625.834 101.52,625.618 101.592,625.33 C 101.592,625.186 101.592,625.042 101.592,624.97 C 101.592,624.826 101.52,624.682 101.448,624.466 L 101.088,624.394 L 100.944,625.258 z" />
      </g>
      <g
         transform="translate(36.0581,-80.79684)"
         id="g416"
         style="fill:#000000">
        <path
           id="path418"
           d="M 101.16,618.562 C 101.232,618.562 101.304,618.562 101.376,618.562 C 101.808,618.634 102.168,618.706 102.456,618.922 C 102.744,619.138 102.96,619.426 103.032,619.714 C 103.176,620.002 103.248,620.434 103.176,620.866 C 103.104,621.298 103.032,621.658 102.816,621.946 C 102.672,622.234 102.384,622.45 102.096,622.594 C 101.808,622.738 101.52,622.81 101.16,622.738 L 101.16,621.514 C 101.52,621.514 101.736,621.514 101.952,621.37 C 102.168,621.226 102.24,621.082 102.24,620.794 C 102.312,620.506 102.24,620.29 102.096,620.146 C 101.952,620.002 101.664,619.858 101.232,619.786 L 101.16,619.786 L 101.16,618.562 z" />
      </g>
      <g
         transform="translate(36.0581,-80.79684)"
         id="g420"
         style="fill:#000000">
        <path
           id="path422"
           d="M 100.944,622.738 C 100.296,622.666 99.792,622.45 99.504,622.018 C 99.216,621.586 99.072,621.082 99.144,620.434 C 99.216,619.714 99.504,619.21 99.864,618.922 C 100.224,618.634 100.656,618.49 101.16,618.562 L 101.16,619.786 C 100.8,619.786 100.584,619.786 100.368,619.93 C 100.224,620.074 100.08,620.29 100.08,620.506 C 100.008,620.794 100.08,621.01 100.224,621.154 C 100.44,621.37 100.656,621.442 101.088,621.514 C 101.088,621.514 101.16,621.514 101.16,621.514 L 101.16,622.738 C 101.088,622.738 101.016,622.738 100.944,622.738 z" />
      </g>
      <g
         transform="translate(36.0581,-80.79684)"
         id="g424"
         style="fill:#000000">
        <path
           id="path426"
           d="M 99.648,617.842 L 99.72,616.618 L 102.024,615.322 L 99.864,615.106 L 99.936,613.954 L 103.824,614.314 L 103.752,615.466 L 101.52,616.762 L 103.608,616.978 L 103.536,618.13 L 99.648,617.842 z" />
      </g>
      <g
         transform="translate(36.0581,-80.79684)"
         id="g428"
         style="fill:#000000">
        <path
           id="path430"
           d="M 100.008,613.09 L 100.152,611.866 L 104.04,612.154 L 103.896,613.378 L 100.008,613.09 z" />
      </g>
      <g
         transform="translate(36.0581,-80.79684)"
         id="g432"
         style="fill:#000000">
        <path
           id="path434"
           d="M 103.608,608.698 L 103.536,610.138 L 104.184,610.354 L 104.184,611.65 L 102.024,610.714 L 102.024,609.562 L 102.744,609.85 L 102.744,608.914 L 102.024,609.13 L 102.024,607.978 L 104.328,607.186 L 104.256,608.554 L 103.608,608.698 z" />
      </g>
      <g
         transform="translate(36.0581,-80.79684)"
         id="g436"
         style="fill:#000000">
        <path
           id="path438"
           d="M 102.024,610.714 L 100.296,609.994 L 100.368,608.554 L 102.024,607.978 L 102.024,609.13 L 101.376,609.346 L 102.024,609.562 L 102.024,610.714 z" />
      </g>
      <g
         transform="translate(36.0581,-80.79684)"
         id="g440"
         style="fill:#000000">
        <path
           id="path442"
           d="M 103.104,605.098 L 103.032,603.946 C 103.176,603.874 103.32,603.874 103.464,603.802 C 103.608,603.658 103.68,603.442 103.68,603.226 C 103.68,603.01 103.68,602.866 103.536,602.794 C 103.464,602.722 103.392,602.65 103.32,602.65 C 103.176,602.65 103.104,602.722 103.032,602.794 C 102.96,602.866 102.888,603.082 102.816,603.442 C 102.672,604.018 102.528,604.378 102.312,604.594 C 102.096,604.882 101.88,604.954 101.592,604.954 C 101.376,604.954 101.16,604.882 101.016,604.81 C 100.8,604.666 100.656,604.45 100.584,604.234 C 100.44,604.018 100.44,603.658 100.44,603.226 C 100.44,602.722 100.512,602.29 100.728,602.074 C 100.872,601.786 101.16,601.642 101.592,601.57 L 101.664,602.722 C 101.448,602.794 101.376,602.866 101.232,602.938 C 101.16,603.01 101.16,603.154 101.16,603.37 C 101.16,603.514 101.16,603.586 101.232,603.73 C 101.304,603.802 101.376,603.802 101.448,603.802 C 101.52,603.802 101.592,603.802 101.592,603.73 C 101.664,603.658 101.736,603.514 101.736,603.298 C 101.88,602.722 102.024,602.362 102.096,602.074 C 102.24,601.858 102.384,601.714 102.528,601.57 C 102.744,601.498 102.888,601.426 103.104,601.426 C 103.392,601.426 103.608,601.498 103.824,601.642 C 104.04,601.786 104.184,602.002 104.256,602.218 C 104.4,602.506 104.472,602.866 104.472,603.226 C 104.472,603.946 104.328,604.378 104.04,604.666 C 103.824,604.954 103.464,605.098 103.104,605.098 z" />
      </g>
      <g
         transform="translate(36.0581,-80.79684)"
         id="g444"
         style="fill:#000000">
        <path
           id="path446"
           d="M 103.68,598.33 L 103.752,599.77 L 104.4,599.914 L 104.4,601.21 L 102.168,600.418 L 102.168,599.266 L 102.888,599.482 L 102.888,598.618 L 102.168,598.834 L 102.168,597.682 L 104.328,596.746 L 104.328,598.114 L 103.68,598.33 z" />
      </g>
      <g
         transform="translate(36.0581,-80.79684)"
         id="g448"
         style="fill:#000000">
        <path
           id="path450"
           d="M 102.168,600.418 L 100.44,599.77 L 100.44,598.402 L 102.168,597.682 L 102.168,598.834 L 101.448,599.05 L 102.168,599.266 L 102.168,600.418 z" />
      </g>
      <g
         transform="translate(36.0581,-80.79684)"
         id="g452"
         style="fill:#000000">
        <path
           id="path454"
           d="M 100.44,596.602 L 100.368,595.378 L 102.456,593.722 L 100.296,593.866 L 100.224,592.642 L 104.112,592.498 L 104.184,593.65 L 102.096,595.306 L 104.256,595.162 L 104.328,596.386 L 100.44,596.602 z" />
      </g>
      <g
         transform="translate(36.0581,-80.79684)"
         id="g456"
         style="fill:#000000">
        <path
           id="path458"
           d="M 99.936,588.394 L 99.792,587.098 L 101.952,586.954 C 102.384,586.882 102.744,586.882 102.96,586.954 C 103.176,587.026 103.392,587.17 103.608,587.386 C 103.752,587.602 103.896,587.962 103.896,588.322 C 103.968,588.754 103.896,589.042 103.824,589.258 C 103.752,589.546 103.608,589.69 103.392,589.834 C 103.176,589.978 102.96,590.122 102.672,590.122 L 102.384,588.97 C 102.6,588.97 102.672,588.898 102.816,588.898 C 102.888,588.826 102.96,588.754 102.96,588.682 C 103.032,588.682 103.032,588.61 103.032,588.466 C 103.032,588.394 102.96,588.25 102.816,588.178 C 102.744,588.178 102.528,588.106 102.312,588.178 L 99.936,588.394 z" />
      </g>
      <g
         transform="translate(36.0581,-80.79684)"
         id="g460"
         style="fill:#000000">
        <path
           id="path462"
           d="M 99.504,583.714 L 99.36,582.49 L 101.664,582.202 C 101.952,582.202 102.168,582.202 102.384,582.274 C 102.6,582.346 102.744,582.418 102.96,582.562 C 103.104,582.706 103.248,582.85 103.32,583.066 C 103.392,583.282 103.464,583.57 103.536,583.93 C 103.536,584.074 103.536,584.29 103.536,584.578 C 103.536,584.794 103.536,585.01 103.464,585.154 C 103.392,585.298 103.32,585.442 103.176,585.586 C 103.032,585.73 102.888,585.874 102.744,585.946 C 102.528,586.018 102.312,586.09 102.096,586.09 L 99.792,586.378 L 99.648,585.154 L 102.024,584.866 C 102.24,584.866 102.384,584.794 102.528,584.65 C 102.6,584.506 102.672,584.29 102.6,584.074 C 102.6,583.858 102.528,583.714 102.384,583.57 C 102.24,583.498 102.096,583.426 101.88,583.498 L 99.504,583.714 z" />
      </g>
      <g
         transform="translate(36.0581,-80.79684)"
         id="g464"
         style="fill:#000000">
        <path
           id="path466"
           d="M 102.312,579.034 L 102.456,580.402 L 103.104,580.546 L 103.32,581.77 L 100.872,581.266 L 100.872,580.186 L 101.592,580.258 L 101.448,579.394 L 100.872,579.682 L 100.872,578.458 L 102.744,577.378 L 102.888,578.746 L 102.312,579.034 z" />
      </g>
      <g
         transform="translate(36.0581,-80.79684)"
         id="g468"
         style="fill:#000000">
        <path
           id="path470"
           d="M 100.872,581.266 L 99.216,580.834 L 99.072,579.466 L 100.872,578.458 L 100.872,579.682 L 100.152,580.042 L 100.872,580.186 L 100.872,581.266 z" />
      </g>
      <g
         transform="translate(36.0581,-80.79684)"
         id="g472"
         style="fill:#000000">
        <path
           id="path474"
           d="M 98.784,578.098 L 98.496,576.946 L 100.152,574.858 L 98.064,575.434 L 97.776,574.282 L 101.592,573.274 L 101.88,574.426 L 100.152,576.442 L 102.24,575.866 L 102.528,577.018 L 98.784,578.098 z" />
      </g>
      <g
         transform="translate(36.0581,-80.79684)"
         id="g476"
         style="fill:#000000">
        <path
           id="path478"
           d="M 99,567.514 C 99.216,567.586 99.36,567.658 99.432,567.73 C 99.576,567.802 99.648,567.946 99.72,568.162 C 99.864,568.378 99.936,568.522 100.008,568.666 L 100.8,570.682 L 99,571.402 L 99,570.034 L 99.576,569.818 L 99.288,569.242 C 99.216,569.026 99.144,568.882 99.072,568.81 L 99,568.81 L 99,567.514 z" />
      </g>
      <g
         transform="translate(36.0581,-80.79684)"
         id="g480"
         style="fill:#000000">
        <path
           id="path482"
           d="M 97.632,568.594 C 97.704,568.666 97.776,568.738 97.776,568.738 C 97.776,568.45 97.776,568.234 97.92,568.018 C 97.992,567.874 98.136,567.73 98.424,567.586 C 98.568,567.514 98.784,567.514 98.928,567.514 L 99,567.514 L 99,568.81 C 98.928,568.81 98.856,568.81 98.712,568.81 C 98.64,568.882 98.568,568.954 98.496,569.026 C 98.496,569.17 98.496,569.314 98.568,569.53 L 98.784,570.106 L 99,570.034 L 99,571.402 L 97.632,571.978 L 97.632,570.61 L 98.136,570.394 L 97.92,569.89 C 97.848,569.746 97.776,569.602 97.704,569.53 C 97.704,569.53 97.632,569.53 97.632,569.53 L 97.632,568.594 z" />
      </g>
      <g
         transform="translate(36.0581,-80.79684)"
         id="g484"
         style="fill:#000000">
        <path
           id="path486"
           d="M 97.128,572.194 L 96.336,570.034 C 96.192,569.602 96.12,569.314 96.264,569.026 C 96.336,568.81 96.552,568.594 96.768,568.522 C 96.984,568.378 97.2,568.378 97.416,568.45 C 97.488,568.522 97.56,568.522 97.632,568.594 L 97.632,569.53 C 97.56,569.53 97.488,569.53 97.416,569.53 C 97.272,569.602 97.2,569.674 97.2,569.746 C 97.128,569.89 97.2,570.034 97.272,570.178 L 97.416,570.682 L 97.632,570.61 L 97.632,571.978 L 97.128,572.194 z" />
      </g>
      <g
         transform="translate(36.0581,-80.79684)"
         id="g488"
         style="fill:#000000">
        <path
           id="path490"
           d="M 97.56,567.658 C 97.2,567.874 96.912,567.946 96.624,568.018 L 96.624,566.722 C 96.696,566.722 96.84,566.65 96.984,566.578 C 97.344,566.362 97.56,566.146 97.632,565.93 C 97.704,565.714 97.704,565.498 97.56,565.282 C 97.488,564.994 97.272,564.85 97.056,564.85 C 96.984,564.778 96.768,564.85 96.624,564.922 L 96.624,563.626 C 96.624,563.626 96.696,563.626 96.696,563.626 C 97.056,563.626 97.344,563.698 97.632,563.914 C 97.92,564.058 98.136,564.418 98.352,564.778 C 98.568,565.21 98.712,565.57 98.712,565.93 C 98.712,566.218 98.64,566.578 98.424,566.866 C 98.28,567.154 97.992,567.442 97.56,567.658 z" />
      </g>
      <g
         transform="translate(36.0581,-80.79684)"
         id="g492"
         style="fill:#000000">
        <path
           id="path494"
           d="M 96.624,568.018 C 96.408,568.018 96.192,567.946 95.976,567.946 C 95.544,567.73 95.112,567.37 94.824,566.794 C 94.536,566.218 94.464,565.642 94.608,565.138 C 94.752,564.706 95.04,564.274 95.616,563.986 C 95.976,563.77 96.336,563.626 96.624,563.626 L 96.624,564.922 C 96.48,564.922 96.336,564.994 96.192,565.066 C 95.832,565.282 95.688,565.498 95.544,565.714 C 95.472,565.93 95.544,566.146 95.616,566.362 C 95.76,566.578 95.904,566.722 96.12,566.794 C 96.264,566.794 96.408,566.794 96.624,566.722 L 96.624,568.018 z" />
      </g>
      <g
         transform="translate(36.0581,-80.79684)"
         id="g496"
         style="fill:#000000">
        <path
           id="path498"
           d="M 96.12,563.194 L 95.472,562.258 C 95.616,562.114 95.688,561.97 95.76,561.898 C 95.832,561.682 95.832,561.466 95.688,561.25 C 95.616,561.106 95.472,561.034 95.328,560.962 C 95.256,560.962 95.112,560.962 95.04,561.034 C 94.968,561.106 94.896,561.178 94.896,561.322 C 94.896,561.394 94.896,561.61 95.04,561.97 C 95.184,562.474 95.256,562.906 95.256,563.194 C 95.184,563.554 95.04,563.77 94.752,563.914 C 94.608,564.058 94.392,564.13 94.176,564.13 C 93.96,564.13 93.744,564.058 93.528,563.842 C 93.312,563.698 93.096,563.482 92.88,563.122 C 92.664,562.69 92.52,562.258 92.52,561.97 C 92.592,561.61 92.736,561.322 93.024,561.034 L 93.744,562.042 C 93.6,562.114 93.528,562.258 93.456,562.402 C 93.456,562.546 93.528,562.69 93.6,562.834 C 93.672,562.906 93.744,563.05 93.816,563.05 C 93.96,563.05 94.032,563.05 94.104,563.05 C 94.104,562.978 94.176,562.906 94.176,562.834 C 94.176,562.762 94.176,562.618 94.104,562.402 C 93.888,561.898 93.816,561.466 93.744,561.25 C 93.744,560.962 93.816,560.746 93.888,560.53 C 93.96,560.314 94.104,560.17 94.32,560.098 C 94.464,559.954 94.752,559.882 94.968,559.882 C 95.256,559.882 95.472,559.954 95.688,560.098 C 95.904,560.314 96.12,560.53 96.336,560.89 C 96.696,561.466 96.84,561.97 96.768,562.33 C 96.624,562.69 96.48,562.978 96.12,563.194 z" />
      </g>
      <g
         transform="translate(36.0581,-80.79684)"
         id="g500"
         style="fill:#000000">
        <path
           id="path502"
           d="M 92.232,557.578 L 91.944,556.498 C 92.16,556.354 92.448,556.354 92.736,556.354 C 92.952,556.354 93.168,556.426 93.384,556.57 C 93.6,556.714 93.816,556.93 94.032,557.218 C 94.248,557.578 94.392,557.938 94.464,558.226 C 94.536,558.514 94.464,558.874 94.32,559.162 C 94.176,559.522 93.888,559.882 93.528,560.17 C 93.024,560.53 92.52,560.674 92.016,560.602 C 91.512,560.53 91.08,560.242 90.72,559.666 C 90.432,559.234 90.36,558.874 90.36,558.514 C 90.36,558.154 90.432,557.794 90.72,557.434 L 91.512,558.154 C 91.44,558.298 91.368,558.37 91.368,558.442 C 91.368,558.586 91.296,558.658 91.368,558.802 C 91.368,558.874 91.368,559.018 91.44,559.09 C 91.656,559.378 91.872,559.45 92.088,559.45 C 92.304,559.45 92.52,559.306 92.808,559.162 C 93.168,558.874 93.384,558.658 93.456,558.442 C 93.528,558.226 93.456,558.01 93.312,557.794 C 93.168,557.578 93.024,557.506 92.88,557.506 C 92.664,557.434 92.52,557.506 92.232,557.578 z" />
      </g>
      <g
         transform="translate(36.0581,-80.79684)"
         id="g504"
         style="fill:#000000">
        <path
           id="path506"
           d="M 91.152,556.642 C 90.72,557.074 90.288,557.218 89.856,557.218 L 89.856,556.066 C 90,555.994 90.216,555.85 90.36,555.706 C 90.72,555.418 90.864,555.202 90.864,554.986 C 90.936,554.698 90.864,554.482 90.72,554.338 C 90.576,554.122 90.36,553.978 90.144,553.978 C 90.072,553.978 89.928,554.05 89.856,554.05 L 89.856,552.826 C 90.072,552.826 90.288,552.898 90.504,552.97 C 90.792,553.114 91.08,553.33 91.368,553.69 C 91.656,554.05 91.872,554.338 91.944,554.698 C 92.016,554.986 91.944,555.346 91.872,555.706 C 91.728,556.066 91.512,556.354 91.152,556.642 z" />
      </g>
      <g
         transform="translate(36.0581,-80.79684)"
         id="g508"
         style="fill:#000000">
        <path
           id="path510"
           d="M 89.856,557.218 C 89.784,557.218 89.712,557.218 89.712,557.218 C 89.208,557.218 88.704,556.93 88.344,556.426 C 87.912,555.922 87.696,555.346 87.768,554.842 C 87.768,554.338 88.056,553.906 88.56,553.474 C 88.92,553.186 89.208,552.97 89.568,552.898 C 89.64,552.898 89.784,552.826 89.856,552.826 L 89.856,554.05 C 89.712,554.122 89.496,554.266 89.28,554.41 C 88.992,554.698 88.848,554.914 88.848,555.13 C 88.776,555.418 88.848,555.634 88.992,555.778 C 89.208,555.994 89.352,556.066 89.568,556.066 C 89.712,556.066 89.784,556.066 89.856,556.066 L 89.856,557.218 z" />
      </g>
      <path
         transform="matrix(1,-0.233333,0,1,61.76619,-94.08492)"
         d="M 46.074232,586.11096 A 30.048412,21.534697 0 1 1 -14.022593,586.11096 A 30.048412,21.534697 0 1 1 46.074232,586.11096 z"
         sodipodi:ry="21.534697"
         sodipodi:rx="30.048412"
         sodipodi:cy="586.11096"
         sodipodi:cx="16.02582"
         id="path2396"
         style="opacity:0.96774196;fill:url(#linearGradient3417);fill-opacity:1;fill-rule:nonzero;stroke:none;stroke-width:0.2;stroke-linecap:round;stroke-linejoin:round;marker:none;marker-start:none;marker-mid:none;marker-end:none;stroke-miterlimit:4;stroke-dasharray:none;stroke-dashoffset:0;stroke-opacity:1;visibility:visible;display:inline;overflow:visible"
         sodipodi:type="arc" />
      <path
         transform="matrix(0.980952,0,0,1.17,2.957145,-85.56452)"
         d="M 120.19365,528.85205 A 35.05648,33.387127 0 1 1 50.080688,528.85205 A 35.05648,33.387127 0 1 1 120.19365,528.85205 z"
         sodipodi:ry="33.387127"
         sodipodi:rx="35.05648"
         sodipodi:cy="528.85205"
         sodipodi:cx="85.137169"
         id="path3132"
         style="opacity:0.26209675;fill:url(#radialGradient3419);fill-opacity:1;fill-rule:nonzero;stroke:none;stroke-width:0.2;stroke-linecap:round;stroke-linejoin:round;marker:none;marker-start:none;marker-mid:none;marker-end:none;stroke-miterlimit:4;stroke-dasharray:none;stroke-dashoffset:0;stroke-opacity:1;visibility:visible;display:inline;overflow:visible"
         sodipodi:type="arc" />
    </g>
  </g>
</svg>
